<?xml version="1.0" encoding="UTF-8"?><svg id="Lag_2" xmlns="http://www.w3.org/2000/svg" viewBox="0 0 167.15 139.6"><defs><style>.cls-1{stroke:#fff;stroke-miterlimit:10;}.cls-1,.cls-2{fill:#fff;}.cls-2{font-family:KeepCalm-Medium, 'Keep Calm';font-size:36px;}.cls-3{letter-spacing:-.02em;}.cls-4{letter-spacing:-.06em;}</style></defs><g id="_ÎÓÈ_1"><g><g><polygon class="cls-1" points="83.58 2.75 88.94 31.72 78.21 31.72 83.58 2.75"/><polygon class="cls-1" points="123.23 13.37 113.39 41.15 104.09 35.78 123.23 13.37"/><polygon class="cls-1" points="152.26 42.4 129.85 61.53 124.48 52.24 152.26 42.4"/><polygon class="cls-1" points="162.88 82.05 133.91 83.54 133.91 76.68 162.88 82.05"/><polygon class="cls-1" points="4.27 82.08 33.24 76.7 33.25 83.56 4.27 82.08"/><polygon class="cls-1" points="14.88 42.42 42.66 52.26 37.3 61.55 14.88 42.42"/><polygon class="cls-1" points="43.9 13.39 63.04 35.79 53.75 41.16 43.9 13.39"/><path class="cls-1" d="M126.32,83.55c.02-.5,.04-.99,.04-1.49,0-23.63-19.16-42.79-42.79-42.79s-42.79,19.16-42.79,42.79c0,.5,.02,1,.04,1.49H126.32Z"/></g><text class="cls-2" transform="translate(32.35 128.52)"><tspan class="cls-3" x="0" y="0">2</tspan><tspan class="cls-4" x="23.8" y="0">0</tspan><tspan class="cls-3" x="50.15" y="0">2</tspan><tspan x="73.94" y="0">0</tspan></text></g></g></svg>