<svg viewBox="0 0 167.15 139.6" xmlns="http://www.w3.org/2000/svg"><g fill="#fff"><g stroke="#fff" stroke-miterlimit="10"><path d="m83.58 2.75 5.36 28.97h-10.73z"/><path d="m123.23 13.37-9.84 27.78-9.3-5.37z"/><path d="m152.26 42.4-22.41 19.13-5.37-9.29z"/><path d="m162.88 82.05-28.97 1.49v-6.86z"/><path d="m4.27 82.08 28.97-5.38.01 6.86z"/><path d="m14.88 42.42 27.78 9.84-5.36 9.29z"/><path d="m43.9 13.39 19.14 22.4-9.29 5.37z"/><path d="m126.32 83.55c.02-.5.04-.99.04-1.49 0-23.63-19.16-42.79-42.79-42.79s-42.79 19.16-42.79 42.79c0 .5.02 1 .04 1.49z"/></g><text font-family="KeepCalm-Medium, 'Keep Calm'" font-size="36" transform="translate(32.35 128.52)"><tspan letter-spacing="-.02em" x="0" y="0">2</tspan><tspan letter-spacing="-.06em" x="23.8" y="0">0</tspan><tspan letter-spacing="-.02em" x="50.15" y="0">2</tspan><tspan x="73.94" y="0">0</tspan></text></g></svg>