<?xml version="1.0" encoding="UTF-8"?><svg xmlns="http://www.w3.org/2000/svg" xmlns:xlink="http://www.w3.org/1999/xlink" viewBox="0 0 163.98 79.85"><defs><style>.cls-1{fill:#fff;}.cls-2{clip-path:url(#clippath);}.cls-3{stroke:#fff;stroke-miterlimit:10;stroke-width:6px;}.cls-3,.cls-4{fill:none;}</style><clipPath id="clippath"><rect class="cls-4" x="1.98" y="1.98" width="75" height="76"/></clipPath></defs><g id="Layer_1"><g id="Group_18" transform="translate(0 0)"><g class="cls-2"><g id="Group_17" transform="translate(0 0)"><path id="Path_25" class="cls-1" d="M20.3,69.05c.6,.23,1.14,.43,1.66,.61,.4,.18,.82,.35,1.24,.51,1.52,.57,3.12,.92,4.54,1.64,1.04,.55,2,1.18,2.88,1.86,.44,.42,.94,.81,1.5,1.16,.21,.17,.46,.33,.73,.45,.08,.03,.15,.06,.23,.08,1.66,.86,3.74,1.2,5.76,.94,.04,0,.09,0,.13,.02,.01,0,.02,0,.04,0,.04,.24,.4,1.43,4.01,1.53,.13,0,.25,0,.37,0,.71,.06,1.42,.08,2.13,.06,1.28-.02,2.56-.13,3.84-.14,.49,0,.98,.02,1.46,.08,.21,.03,.42,.03,.62,0,.26,.03,.53,.06,.79,.1,.56,.08,1.1-.18,1.21-.58,.05-.18,0-.38-.14-.54,.08-.09,.17-.17,.27-.24,.38-.21,.8-.37,1.25-.48,.68-.17,1.33-.38,1.96-.63,.21-.06,.42-.12,.63-.2,1.18-.47,2.2-1.12,3-1.9,1.14-.94,1.93-2.07,2.3-3.29,.01-.04,.02-.07,.03-.11,.16-.35,.3-.7,.43-1.05,.12-.33,.23-.67,.34-1,.84-1.82,1.72-2.45,2.78-3.45,1.39-1.31,2.92-5.03,2.63-7.97-.12-1.47,.18-2.94,.86-4.33,.33-.58,.7-1.14,1.1-1.7,.41-.53,.96-.99,1.62-1.36,2.12-1.1,4.96-1.68,3.94-3.72-.52-.92-1.14-1.81-1.84-2.66-.07-.14-.14-.29-.21-.43-.2-.42-.38-.84-.58-1.25,0-.02,.01-.03,.01-.05,0-.07,.02-.13,.02-.19,.06-.27,.16-.54,.3-.8,.06-.18,.02-.38-.1-.54,.03-.07,.05-.14,.05-.21-.02-.3-.08-.6-.15-.9,.98-2.13,3.3-4.77,3-6.08-.05-.29-.17-.56-.36-.82-.05-.13-.12-.26-.2-.39-.3-.41-.87-.69-1.51-.73-.38,0-.75,0-1.12,.04-.15-.03-.31-.05-.46-.08-.03,0-.06-.02-.09-.02-1.92-.71-3.92-1.3-3.92-5.12,0-4.04,.29-7.18-1.83-9.17-.48-.46-1.03-.87-1.63-1.25,0,0-.01-.02-.02-.03-.24-.21-.53-.4-.85-.56-.1-.06-.24-.12-.37-.19-.31-.21-.55-.46-.71-.73-.01-.11-.02-.23-.04-.3-.07-.35-.16-.69-.28-1.03-.34-.97-.85-1.9-1.54-2.77-.83-1.17-1.99-2.21-3.4-3.06-.34-.19-.68-.36-1-.51-1.26-.68-2.64-1.25-4.1-1.69-.03-.02-.06-.04-.09-.06-.53-.51-.54-1.28-1.45-1.59-.17-.09-.39-.13-.6-.12h0s-.09,0-.14-.01c-1.68-.1-12.71-.84-14.31,3.09,0,0-.36,1.94-3.8,1.62s-5.7,.26-6.79,1.52c-.06,.07-.11,.12-.16,.18-.09,.07-.19,.14-.28,.22-.32,.33-.71,.62-1.16,.86-.54,.25-1.16,.4-1.72,.61-.68,.27-1.3,.61-1.85,1-1.03,.64-1.9,1.41-2.56,2.27-.76,.95-1.02,1.3-2.01,1.79-.16,.05-.33,.1-.51,.15-1.05,.29-1.94,.82-2.54,1.51h0c-.74,.58-1.19,1.32-1.28,2.11-.16,1.43,0,2.16-1.2,2.98-.81,.31-1.56,.7-2.21,1.16-.77,.59-1.42,1.27-1.91,2-.03,.04-.05,.08-.07,.12-.79,1.04-1.33,2.17-1.61,3.34-.04,.17-.09,.33-.14,.5-.18,.49-.37,.97-.58,1.45-.87,1.94-2.2,3.9-1.97,5.99,.09,.98,.54,1.94,1.29,2.76,.6,.76,1.17,.96,1.3,1l-.07,.06c-1.58,.86-2.61,2.14-2.87,3.55-.49,1.3-.14,2.49,.37,3.74,1.2,4.02,4.37,9.54,9.2,11.66,.09,.05,.17,.1,.26,.15,.16,.51,.36,1.02,.58,1.52,.79,2.19,2.85,6.24,7.67,8.06m-1.62-3.24c-.12-.12-.24-.25-.36-.38-1.16-1.32-2.04-2.1-2.68-2.86-.37-.53-.69-1.07-.97-1.63-.06-.12-.1-.25-.16-.37-.13-.36-.26-.65-.38-.89-.15-.45-.19-.92-.71-1.23-.08-.05-.16-.09-.24-.14,.02-.16,.34-.26,.83-.54,.66-.37,1.44-.54,1.97-1.15,.24-.28,.42-.43,.59-.44,.09,.26,.19,.51,.31,.76,.16,.32,.37,.63,.62,.92,.47,1.13,1.63,2.04,3.16,2.48,.2,.07,.39,.13,.59,.2,.32,.16,.64,.32,.95,.48,1.22,.56,2.35,1.21,3.38,1.94,.53,.4,1.01,.83,1.45,1.29,1.07,1.52,3.21,4.49,4.46,5.89,.19,.27,.37,.55,.56,.82,.18,.31,.67,.45,1.1,.31h.03c.18,.03,.3,0,.32-.15,.36-.21,.47-.58,.26-.88-.7-1.01-1.37-2.07-2.09-3.11-.67-1.2-1.4-2.35-1.95-2.86-1.01-.93-1.87-2.21-1.3-3.42,.21-.31,.45-.61,.72-.89,1.58-1.37,3.24-2.13,5.11-1.88,.81,.11,1.57,.37,2.21,.74,.26,.22,.49,.46,.69,.71,1.28,1.6,1.63,3.5,3.08,5.03,.18,.19,.37,.37,.58,.54,.26,.23,.56,.44,.9,.61,1.31,.79,3.01,1.18,4.71,1.06,.39-.02,.72-.2,.86-.46,.66-.13,1.03-.31,.92-.48-.09-.13-.49-.21-1.02-.26-.18-.16-.47-.25-.76-.22-1.29,.11-2.59-.19-3.55-.82-1.25-1.05-2.22-3.45-3.07-4.68-.95-1.36-2.04-1.89-1.61-2.57s4.82-5.08,4.89-6.97,.36-4.14-.22-5.77v-.02c-.18-.99-.37-1.98-.48-2.97,.25-.21,.61-.34,.99-.36,.56-.06,1.44-.1,2.43-.14l4.57-.03c1.03,.03,1.79,.1,1.98,.22,.58,.37,.73,2.46,.8,3.93,.03,.59-.09,1.95-.26,3.44-.12,.73-.24,1.46-.34,2.18-.24,1.65-.33,3.39-1.3,4.92-.88,1.38-2.3,2.53-3.83,3.56-.33,.2-.4,.56-.16,.82-.02,.14,.06,.22,.28,.22,.38,.23,.93,.21,1.28-.04,1.29-.85,2.43-1.81,3.38-2.86l.15-.14c.21-.23,.39-.47,.52-.72,.03-.04,.06-.09,.09-.13,.72-1.21,1.16-2.5,1.3-3.81,.2-.78,.32-1.56,.35-2.36,.13-.8,.27-1.62,.38-2.43,.36-1.35,.82-2.77,.64-3.55-.29-1.26-1.05-3.09,1.1-3.2s8.47-.05,10.3-.1,3.87,.16,4.6,1.42h0c.2,.91,.21,1.83,.03,2.73-.36,1.34-1,2.63-1.92,3.83-.15,.22-.3,.43-.45,.65-1.04,1.38-1.9,2.85-2.26,3.39-.58,.89-2.34,1.21-3.29,2.62,0,.01-.01,.02-.02,.03-.08,.1-.17,.19-.24,.29-.07,.11-.11,.23-.11,.36-.36,.9,.11,1.21,.65,.74l.07-.06c.42,.09,.87-.04,1.09-.31,.11-.16,.24-.32,.38-.47,.04-.04,.07-.07,.11-.11s.17-.15,0,0c.08-.07,.16-.14,.24-.21,.16-.13,.33-.25,.52-.37l.03-.02c.06,.04,.11,.09,.12,.14,.14,.55,.22,1.11,.22,1.67,0,.94-.13,1.87-.37,2.8-.2,.66-.55,1.29-1.02,1.88-.71,.87-1.32,1.79-1.83,2.73-.34,.32-.69,.63-.98,.97-.08,.02-.17,.03-.25,.02-.29-.02-.57-.09-.8-.22-.16-.13-.32-.27-.47-.41-.46-.45-.84-.93-1.15-1.43-.02-.05-.04-.09-.06-.14-.59-1.93-1.03-3.89-1.32-5.85-.11-1.71,.08-3.42,.56-5.1,1.34-2.09,2.9-4.25,2.08-4.2-.29,0-.59,0-.88,.03-.38-.04-.76,.07-.98,.3-.97,1.01-1.67,2.14-2.07,3.33-1.03,2.01-1.69,4.27-1.18,5.88,.66,2.1,1.1,3.93,.29,5.3-.68,1.16-1.8,4.31-5.38,6.17-.48,.23-.99,.44-1.52,.61-4.6,1.45-9.97,.38-12.88-2.56-.72-.74-2.44-.03-1.71,.72,.9,.92,2.03,1.71,3.33,2.34,1.58,.83,3.58,1.5,5.52,1.58,.59,.02,1.19,.02,1.78-.02,1.44-.02,2.87-.23,4.21-.61,.42-.12,.82-.26,1.22-.41,1.37-.43,2.61-1.04,3.67-1.79,2.51-1.85,3.25-5.11,3.9-4.43,.21,.3,.45,.59,.71,.86,.58,.61,1.35,1.12,1.95,1.72,.11,.26,.14,.54,.09,.81-.29,1.52-2.26,4.82-4.89,5.61-.37,.11-.76,.2-1.15,.26-3.42,.36-6.88,.36-10.3,.02-.52-.09-1.06,.13-1.21,.49-.05,.15-.03,.3,.04,.45-.03,.08,.03,.16,.2,.24,.11,.1,.27,.17,.45,.19,2.49,.25,5.01,.33,7.52,.24,0,.01,.02,.03,.01,.05-.18,.29-1.52,.55-3.14,.71-1.32,.04-2.65,.13-3.98,.1-2.19-.11-3.36-.49-4.28-1.09-.17-.16-.4-.28-.65-.37-1.16-.51-2.49-.78-3.85-.77-1.97-.05-4.16-1.83-5.99-3.09-1.82-1.26-4.82-2.52-6.35-2.52,0,0-.25-.08-.64-.22-1.61-.73-3.07-1.62-4.33-2.65M4.53,43.62c1.61-1.89,4.13-2.43,3.28-3.3-.09-.1-.21-.22-.34-.35,0-.23-.2-.43-.5-.52h0c-1.09-1.16-2.57-2.93-2.29-4.21,.34-1.57,.68-2.59,1.5-2.11,.1,.09,.2,.18,.31,.27,.42,.32,.92,.58,1.47,.77,.25,.14,.47,.31,.64,.5,.1,.31,.21,.62,.35,.92,.33,.72,.78,1.41,1.33,2.05,.2,.22,.41,.43,.64,.63,.25,.38,.49,.73,.69,1.01,.57,.78,.09,1.39-.8,2.29-.64,.48-1.16,1.03-1.55,1.64-.05,.05-.09,.1-.14,.16-.58,.76-1.02,1.58-1.3,2.42-.12,.2-.24,.39-.39,.58-.64,.85-1.43,1.63-2.35,2.33-.3-.69-.6-1.39-.88-2.08-.37-.89-.33-1.83,.13-2.7,.06-.1,.12-.19,.2-.28m2.87-15.18c.99-1.6,2.55-3.98,3.12-4.26,.73-.37,1.53,.63,2.63,1.26s3.07,1.15,4.16,.26,1.39-3.04,3.5-4.09c2.1-1.04,4.98-2.64,5.74-1.34,.02,.05,.03,.09,.05,.14,.13,.31,.28,.61,.47,.9,.66,1.34,1.69,2.96,4.62,3.29,.33,.04,.66,.06,.99,.08,.63,.09,1.28,.13,1.93,.11,1.09-.03,2.18-.18,3.25-.14,.76,.06,1.3,.26,1.5,.74,.04,.09,.08,.19,.12,.32,.3,.88,.59,1.77,.83,2.67,.02,.09,.05,.19,.08,.28,.46,1.68,.7,3.4,.72,5.11,0,1.65-.43,3.24-.68,4.87-.01,.06-.01,.12-.02,.18-.43,.45-1.16,.74-2.44,.77-2.94,.08-6.77,.16-9.16-.63-.46-.2-.9-.44-1.29-.71-.24-.17-.47-.35-.7-.53-1.87-1.89-4.76-5.75-4.62-7.41,.1-1.27,1.35-3.17,1.82-4.35h0c.24-.2,.31-.48,.18-.72,0-.1-.03-.2-.11-.28-.66-.52-1.61-.73-2.34,.68s-1.75,3.83-.88,5.3c.02,.04,.04,.07,.05,.1,.01,.12,.02,.24,.04,.35-.38,.08-2.55-1.51-4.4-1.76-.71-.09-1.44-.09-2.16-.01-.33-.03-.67-.06-1.01-.07-.46-.04-.88,.2-.94,.54-.43,.23-.49,.5,.16,.75,1.42,.56,4.72,.56,6.96,1.77h.01c.54,.29,.99,.65,1.34,1.06,1.93,2.26,3.65,5.67,4.89,6.1-.17,0-.34,0-.51,0l-1.82-.08s-8.25,.42-9.13-.37-1.68-1.99-2.48-2.94-1.97-3.2-1.53-4.98c.24-.99,.99-2.33,1.45-3.37,.2-.25,.42-.5,.65-.74,.74-.74-.97-1.45-1.71-.72-1.48,1.51-2.34,3.28-2.49,5.12-.2,.28-.4,.39-.6,.17-.44-.47-.93-.8-1.1-1.23,.3-.73,.56-1.47,.84-2.21m6.56-7.22c.32-.38,.51-.8,.57-1.24,.07-1.1,1.39-2.73,2.48-3.09s2.12-.58,2.7-1.57,2.19-2.36,3.21-3.15c.84-.65,2.52-.87,3.53-1.74,.76-.51,1.26-1.19,2.19-1.57,1.62-.65,3.45-.54,5.26-.53h.34c.69,.05,1.38,0,2.04-.14,.04,0,.08,0,.12-.02,2.33-.39,1.63-2.76,3.75-3.36,.14-.04,.26-.1,.36-.18,1.43-.45,2.97-.71,4.53-.75,1.85-.05,2.49,0,4.08,.53-1.42,.06-2.83,.26-4.19,.58-1.2,.29-.68,1.66,.52,1.37,2.54-.61,5.26-.74,7.88-.37,.06,.01,.11,.02,.17,.03,2.63,.52,3.94,1.68,5.55,2.78s2.34,2.94,2.41,3.83c0,.11-.02,.22-.08,.32-.82,.76-1.64,1.53-2.36,2.34-.32,.27-.58,.58-.78,.9-.44,.94-.66-.05-1.24-1.05s-4.02-4.46-6.06-5.4-5.77-1.57-8.76-1.05c-2.12,.36-4.04,1.18-5.49,2.34-.52,.39-.98,.81-1.38,1.27-.27,.28-.18,.67,.21,.87,.04,.15,.16,.19,.38,.14,.42,.1,.89-.02,1.11-.3,.16-.18,.32-.35,.5-.52,.76-.45,1.75-1.05,2.98-1.76,.05-.03,.1-.05,.15-.08,1.54-.55,3.26-.78,4.98-.66,2.47,.42,4.78,1.67,6.18,2.42,1.94,1.63,3.13,3.79,4.56,5.66,.02,.03,.04,.07,.05,.1,.17,.46,.25,.93,.24,1.4-.16,.63-.25,1.28-.27,1.92,0,1.69,.27,3.36,.83,5,.47,1.68,1.19,3.31,2.16,4.87,.54,.83,2.24,.11,1.71-.72-.02-.04-.04-.08-.07-.11,.07-1.86-2.36-6.48-2.55-9.12-.11-1.52,.61-3.15,1.46-4.43,.55-.73,1.16-1.43,1.85-2.09,.14-.13,.34-.24,.56-.29,.63-.04,2.05,1.45,3.24,3.13,.16,.31,.31,.63,.44,.95,.59,1.47,.96,2.98,1.1,4.51,0,.09,.01,.17,.02,.26-.08,.47-.19,.88-.27,1.21-.09,.33-.27,.39-.52,.31l-.02-.02s-.09-.08-.13-.12c-.08-.09-.16-.17-.24-.26-.16-.18-.3-.37-.44-.57-.28-.34-.88-.45-1.35-.26-.26,.12-.43,.32-.46,.54-.86,.6,1.19,2.1,2.78,2.9,.56,.3,1.01,.69,1.33,1.14,.03,.06,.07,.11,.12,.16,.36,.93,.82,1.85,1.27,2.76,.54,1.09,1.1,2.21,1.5,3.33,.22,.92,.34,1.85,.38,2.78,0,1.1-.58,1.31-1.46,1.78-.36,.2-.78,.32-1.23,.36h-.65c-.33-.02-.65-.05-.97-.1-1.33-.13-2.68-.13-4.02,0-1.53,.1-6.28,.05-7.23,.05s-.66-.42-.15-1.94-.44-7.39-1.17-10.96c-.73-3.56-3.87-5.82-5.18-6.34-.07-.03-.14-.05-.2-.07-.28-.12-.59-.22-.9-.3-1.21-.28-1.74,1.09-.52,1.37,.46,.12,.87,.33,1.18,.6,.38,.38,.82,.84,1.26,1.33,.46,.54,.87,1.11,1.21,1.69,.84,1.5,1.38,3.07,1.62,4.67,.24,1.76,.31,3.53,.2,5.3-.03,.79-.04,1.6-.09,2.4-.22,.98-.49,1.79-.75,2.04-.24,.23-1.25,.33-2.5,.36-.62,0-1.24,0-1.85,.01-1.69-.02-3.36-.08-3.97-.06-1.31,.05-1.68-.58-.88-1.62s0-7.97-.44-10.43-2.56-4.09-1.83-7.92c.06-.32,.16-.64,.28-.95,.31-.56,.67-1.1,1.08-1.62h0c1.42-1.29,3.53-1.36,4.99-1.62,.19-.03,.37-.07,.55-.12,.28,0,.53-.11,.68-.28,.19-.1,.25-.29,.14-.44,0-.38-.42-.68-.95-.69-.57-.02-1.14-.02-1.7,0-.93-.07-1.87,.08-2.68,.43-.46,.15-.89,.36-1.27,.6-.97,.69-1.73,1.52-2.22,2.44h0c-.45,.57-.77,1.18-.94,1.81-.43,1.22-.44,2.49-.03,3.71-.06,.17-.38,.29-.86,.37-.66,0-1.32,.05-1.99,.09-1.34-.04-2.66-.23-3.92-.57-2.77-.79-3.25-2.73-3.43-5.35,0-.07,0-.13,0-.2,.31-1.13,.9-2.21,1.75-3.18,1.18-1.15,2.68-2.16,3.57-2.97,1.37-1.24,.85-1.57,.05-1.68-.28-.13-.63-.13-.91-.01-.92,.21-1.89,1.33-2.86,2.17-.44,.43-.83,.88-1.16,1.36-1.17,1.24-1.98,2.64-2.39,4.11-.06,.17-.1,.35-.11,.53-.03,.19-.05,.39-.06,.59-.16,0-.31,.02-.46,.03-1.92-.28-5.04,1.4-7.21,2.61-2.26,1.26-1.75,2.99-3.07,3.46s-2.48-1.42-2.48-1.42v-.02c.65-.42,.84-.99,.96-1.58m26.27,20.52c.24,.71,.43,1.42,.56,2.14,.09,.48,.17,.96,.24,1.44,.09,.64,.14,1.24,.15,1.72,.04,1.32-.21,2.63-.73,3.89-.27,.53-.59,1.04-.95,1.54-.22,.26-.46,.52-.74,.75-2.19,1.89-1.97,3.72-2.85,3.51h0c-.64-.25-1.34-.39-2.07-.42-1.26-.2-2.57,.08-3.48,.74-.06,.04-.12,.09-.17,.14-1.71,.94-3.05,2.19-3.89,3.61-.32,.18-.6,.25-.82,.13-.16-.08-.4-.19-.67-.3-1.51-.79-3.14-1.46-4.46-2.42-.17-.12-.33-.25-.48-.38-.08-.1-.16-.2-.22-.3-.95-1.57-.58-3.2-2.77-3.09h-.03c-.8-.07-1.44,.39-2,.83-.27,.18-.54,.38-.8,.59-.8,.55-1.69,1.02-2.65,1.4h-.01c-.58-.53-4.03-3.69-5.53-7.01,0,0,.58-.48,1.15-.95,.06-.05,.12-.1,.18-.15,.32-.27,.62-.51,.76-.64,.08,2.28,.62,4.55,2.83,6.31,.3,.26,.83,.3,1.2,.09,1.26,.06,.56-.69-.34-1.88-.72-1.1-1.27-2.24-1.65-3.42-.19-1.09-.23-2.19-.11-3.28,.1-.3,.24-.58,.43-.86,.04-.09,.05-.19,.02-.28v-.02c.18-.38,.37-.77,.58-1.14,.02-.02,.04-.05,.06-.07,.43-.47,.79-.91,1.15-1.29,.45-.35,.95-.67,1.36-1.04,.35-.16,.74-.26,1.15-.29,1.75-.16,4.31,.26,5.55,.16s2.45-.24,3.36-.26c.2,0,.47-.01,.76-.02h.15c.32,0,.64,0,.96,0,.53,.01,.86,.06,.54,.18-.66,.26-3.36,2.31-4.02,3.62,0,.02-.02,.04-.03,.06-1.2,1.48-2.48,3.23-4.27,4.31-1.13,.45-3.25,.68-4.35,1.01-.96,.08-1.1,.86-.08,.98,1.61,.72,3.9-.13,5.82-1.11,.64-.33,1.38-1.05,2.16-1.92,.76-.7,1.47-1.44,2.11-2.2,1.1-1.28,2.16-2.59,3.86-3.51,.08-.04,.16-.08,.23-.12,1.86-.82,3.99-1.27,6.17-1.32,.23,0,.48-.01,.74-.02,.55,0,1.1,0,1.66,0,1.06,0,2.12-.01,3.18-.02,.59,.1,1.01,.29,1.14,.63"/></g></g></g><rect class="cls-1" x="77.98" y="34.98" width="86" height="10"/><rect class="cls-1" x="140.01" y="40.98" width="9.29" height="20.37"/><rect class="cls-1" x="124.93" y="40.98" width="6.72" height="14.73"/><rect class="cls-1" x="131.2" y="39.03" width="7.23" height="17.44" transform="translate(182.56 -87.07) rotate(90)"/></g><g id="Layer_2"><circle class="cls-3" cx="39.92" cy="39.92" r="36.92"/></g></svg>