<?xml version="1.0" encoding="UTF-8"?><svg id="Layer_1" xmlns="http://www.w3.org/2000/svg" xmlns:xlink="http://www.w3.org/1999/xlink" viewBox="0 0 539.72 2557.25"><defs><style>.cls-1{fill:#fff;}.cls-2{clip-path:url(#clippath-1);}.cls-3{stroke:#fff;stroke-miterlimit:10;stroke-width:2px;}.cls-3,.cls-4{fill:none;}.cls-5{clip-path:url(#clippath);}</style><clipPath id="clippath"><rect class="cls-4" y="192" width="539.72" height="2365.25"/></clipPath><clipPath id="clippath-1"><rect class="cls-4" x="116.65" width="244" height="172.89"/></clipPath></defs><g id="Group_18" transform="translate(115.649 0)"><g class="cls-5"><g id="Group_15"><path id="Path_24" class="cls-3" d="M237.2,192.01l-.35,166.5,302.65,29.4-481.55,4.9,180.1,22.04v291.4l213.32,22.04L.3,730.73l238.55,24.49v313.44l282.57,24.49-409.9,12.24,128.51,19.57-2.65,271.38,288.98,15.89-499.92,6.95,212.24,17.4,2.87,263.96,103.56,17.54-280.66,34.75,171.79-.09-3,296.72,225.19,23.07L.3,2065.97l235.51,32.81,.07,314.78,303.62,17.56L.3,2436.25l235.4,18.91v102.09"/></g></g><g class="cls-2"><g id="Group_17" transform="translate(0 0)"><path id="Path_25" class="cls-1" d="M145.33,42.22c-.73,1.38-1.36,2.64-1.97,3.84-.58,.93-1.14,1.88-1.65,2.85-1.84,3.5-2.95,7.2-5.26,10.47-1.78,2.39-3.78,4.62-5.97,6.64-1.36,1.02-2.6,2.17-3.72,3.45-.56,.49-1.05,1.06-1.46,1.68-.1,.17-.18,.35-.26,.54-2.76,3.83-3.85,8.62-3.01,13.27-.02,.1-.03,.2-.06,.29-.01,.03-.02,.05-.03,.08-.77,.08-4.6,.92-4.9,9.24-.01,.29-.01,.57-.02,.85-.18,1.63-.25,3.28-.21,4.92,.08,2.95,.41,5.91,.47,8.86,.01,1.13-.07,2.26-.25,3.38-.08,.48-.08,.96,0,1.44-.09,.61-.2,1.22-.33,1.83-.26,1.28,.57,2.53,1.85,2.79,.59,.12,1.21,0,1.72-.31,.28,.18,.54,.39,.77,.63,.67,.87,1.2,1.85,1.55,2.89,.55,1.56,1.23,3.07,2.04,4.52,.18,.49,.4,.98,.64,1.44,1.52,2.71,3.6,5.07,6.1,6.91,3.03,2.62,6.66,4.45,10.57,5.31,.12,.02,.23,.05,.35,.08,1.12,.36,2.24,.68,3.37,.99,1.06,.28,2.15,.52,3.22,.78,5.84,1.94,7.88,3.98,11.06,6.4,4.21,3.2,16.16,6.73,25.58,6.06,4.72-.27,9.44,.41,13.89,1.98,1.86,.75,3.67,1.62,5.47,2.53,1.69,.95,3.17,2.22,4.38,3.74,3.53,4.88,5.38,11.45,11.95,9.09,2.94-1.21,5.8-2.62,8.54-4.23,.46-.17,.92-.33,1.38-.49,1.34-.45,2.69-.88,4.03-1.34,.05,0,.1,.03,.15,.03,.21,.01,.42,.04,.62,.06,.88,.13,1.74,.37,2.57,.7,.59,.14,1.21,.06,1.75-.23,.21,.08,.44,.11,.66,.11,.97-.06,1.93-.17,2.88-.35,6.83,2.27,15.3,7.6,19.51,6.93,.92-.11,1.81-.4,2.62-.84,.43-.12,.85-.27,1.24-.47,1.33-.69,2.21-2,2.35-3.49,.03-.86-.01-1.73-.11-2.59,.09-.35,.16-.71,.27-1.06,.02-.07,.05-.13,.07-.2,2.28-4.42,4.17-9.03,16.45-9.03,12.96,0,23.06,.67,29.45-4.21,1.46-1.11,2.81-2.37,4.01-3.76,.03-.02,.06-.03,.09-.05,.69-.56,1.29-1.22,1.79-1.96,.18-.23,.38-.54,.6-.86,.66-.7,1.46-1.26,2.35-1.64,.36-.02,.72-.04,.98-.08,1.11-.17,2.21-.38,3.3-.65,3.11-.78,6.1-1.97,8.89-3.54,3.76-1.92,7.1-4.59,9.81-7.83,.61-.79,1.15-1.56,1.63-2.3,2.19-2.91,4.01-6.09,5.41-9.46,.06-.07,.13-.14,.2-.2,1.63-1.23,4.1-1.24,5.12-3.35,.29-.4,.43-.89,.39-1.38h0c.01-.1,.03-.2,.04-.31,.34-3.87,2.69-29.29-9.93-32.99,0,0-6.23-.84-5.22-8.75s-.84-13.13-4.88-15.65c-.21-.13-.38-.25-.57-.38-.24-.22-.46-.44-.72-.65-1.06-.74-1.99-1.64-2.75-2.68-.8-1.24-1.27-2.67-1.97-3.97-.87-1.57-1.95-3.01-3.21-4.27-2.05-2.38-4.52-4.38-7.27-5.89-3.06-1.74-4.17-2.35-5.76-4.64-.16-.37-.32-.76-.48-1.19-.94-2.42-2.63-4.48-4.83-5.87h-.02c-1.86-1.72-4.23-2.76-6.75-2.96-4.59-.37-6.93-.01-9.55-2.77-.99-1.87-2.24-3.59-3.72-5.1-1.91-1.79-4.07-3.27-6.43-4.4-.12-.06-.25-.11-.38-.17-3.35-1.82-6.97-3.07-10.73-3.72-.54-.09-1.07-.21-1.6-.33-1.56-.42-3.11-.86-4.65-1.35-6.22-2-12.52-5.07-19.22-4.55-3.16,.21-6.22,1.24-8.86,2.98-2.44,1.37-3.07,2.69-3.2,3l-.18-.15c-2.76-3.64-6.87-6.02-11.4-6.61-4.18-1.12-7.99-.32-12,.85-12.91,2.76-30.62,10.08-37.43,21.2-.16,.21-.33,.4-.48,.61-1.64,.36-3.27,.82-4.88,1.34-7.04,1.82-20.02,6.56-25.88,17.68m10.4-3.72c.39-.28,.79-.56,1.21-.82,4.25-2.67,6.76-4.69,9.19-6.18,1.7-.85,3.44-1.6,5.23-2.24,.39-.14,.79-.24,1.19-.37,1.16-.31,2.09-.6,2.85-.87,1.45-.35,2.94-.43,3.94-1.64,.15-.18,.29-.36,.44-.54,.52,.03,.84,.79,1.72,1.91,1.18,1.51,1.72,3.33,3.7,4.54,.89,.55,1.39,.97,1.42,1.35-.83,.2-1.65,.44-2.45,.72-1.03,.38-2.01,.85-2.95,1.42-3.63,1.09-6.56,3.76-7.97,7.28-.22,.47-.43,.91-.65,1.36-.52,.73-1.03,1.47-1.53,2.2-1.79,2.81-3.88,5.43-6.24,7.79-1.3,1.22-2.68,2.34-4.13,3.35-4.87,2.46-14.41,7.4-18.92,10.27-.88,.43-1.76,.86-2.64,1.29-.98,.42-1.43,1.56-1.01,2.54,0,.02,.02,.04,.03,.06-.12,.42,0,.69,.46,.75,.68,.84,1.86,1.09,2.82,.59,3.25-1.61,6.64-3.16,10-4.82,3.85-1.55,7.55-3.24,9.19-4.5,3-2.32,7.11-4.31,10.98-3,.99,.49,1.94,1.04,2.86,1.66,4.41,3.65,6.85,7.47,6.02,11.77-.36,1.86-1.18,3.61-2.37,5.09-.71,.6-1.47,1.13-2.28,1.6-5.12,2.96-11.23,3.75-16.17,7.11-.6,.41-1.17,.85-1.72,1.33-.74,.6-1.4,1.29-1.97,2.06-2.54,3.02-3.78,6.93-3.42,10.86,.07,.89,.65,1.66,1.48,1.97,.41,1.51,1,2.38,1.53,2.12,.43-.22,.66-1.12,.85-2.36,.53-.41,.8-1.08,.7-1.74-.35-2.98,.61-5.96,2.63-8.18,3.36-2.88,11.08-5.11,15.02-7.08,4.38-2.19,6.06-4.71,8.25-3.7s16.32,11.11,22.38,11.28,13.3,.84,18.51-.51l.07-.02c3.18-.4,6.37-.84,9.55-1.09,.68,.57,1.1,1.4,1.16,2.29,.18,1.28,.34,3.32,.45,5.61l.08,10.53c-.11,2.37-.33,4.14-.7,4.56-1.18,1.34-7.91,1.68-12.62,1.85-1.9,.07-6.25-.2-11.04-.6-2.36-.27-4.7-.56-7-.79-5.29-.54-10.88-.76-15.8-3-4.44-2.03-8.12-5.3-11.44-8.82-.66-.77-1.78-.93-2.63-.37-.44-.06-.7,.13-.72,.64-.72,.87-.67,2.14,.12,2.95,2.72,2.98,5.8,5.6,9.18,7.8l.44,.34c.72,.49,1.5,.89,2.32,1.2,.14,.07,.27,.14,.42,.21,3.89,1.66,8.02,2.67,12.23,3.01,2.5,.46,5.02,.73,7.56,.81,2.58,.3,5.19,.61,7.81,.88,4.35,.83,8.9,1.9,11.4,1.48,4.04-.67,9.92-2.43,10.26,2.53s.17,19.52,.34,23.73-.5,8.92-4.54,10.6h-.03c-2.89,.49-5.84,.51-8.73,.08-4.3-.82-8.45-2.31-12.29-4.43-.69-.35-1.38-.7-2.07-1.05-4.42-2.39-9.14-4.39-10.87-5.2-2.86-1.35-3.87-5.39-8.42-7.57-.04-.02-.06-.02-.1-.04-.31-.18-.61-.39-.94-.55-.36-.17-.75-.25-1.14-.24-2.89-.83-3.88,.26-2.37,1.5l.21,.17c-.28,.97,.13,2,1.01,2.51,.52,.26,1.03,.55,1.51,.87,.12,.08,.24,.16,.36,.25s.48,.4,0,0c.22,.19,.45,.37,.67,.56,.42,.37,.81,.77,1.18,1.19l.06,.07c-.11,.15-.28,.25-.46,.28-1.77,.33-3.57,.5-5.37,.52-3.01-.02-6.02-.3-8.98-.85-2.12-.47-4.15-1.26-6.02-2.36-2.8-1.64-5.73-3.05-8.76-4.23-1.03-.77-2.03-1.58-3.12-2.26-.06-.19-.08-.39-.07-.59,.06-.67,.3-1.31,.69-1.85,.43-.37,.86-.74,1.32-1.08,1.43-1.05,2.97-1.94,4.6-2.66,.15-.04,.3-.1,.45-.13,6.2-1.37,12.47-2.39,18.79-3.05,5.49-.26,10.99,.18,16.37,1.29,6.7,3.09,13.65,6.68,13.49,4.78,.02-.68,0-1.36-.08-2.03,.14-.88-.23-1.75-.96-2.26-3.24-2.24-6.87-3.86-10.7-4.76-6.45-2.37-13.71-3.89-18.88-2.73-6.73,1.51-12.62,2.53-17,.67-3.72-1.57-13.85-4.14-19.82-12.4-.75-1.11-1.4-2.29-1.95-3.51-4.65-10.59-1.21-22.99,8.23-29.68,2.38-1.67,.11-5.62-2.3-3.93-2.95,2.08-5.5,4.68-7.51,7.68-2.68,3.65-4.82,8.26-5.09,12.73-.07,1.37-.05,2.74,.06,4.1,.07,3.32,.73,6.61,1.96,9.7,.39,.96,.82,1.9,1.31,2.81,1.39,3.15,3.34,6.02,5.76,8.46,5.95,5.78,16.39,7.48,14.24,9-.96,.48-1.88,1.03-2.77,1.63-1.95,1.34-3.59,3.12-5.51,4.49-.84,.25-1.72,.32-2.59,.2-4.88-.67-15.48-5.22-18.01-11.28-.35-.86-.63-1.75-.84-2.66-1.15-7.87-1.17-15.87-.07-23.75,.29-1.21-.4-2.43-1.59-2.8-.48-.11-.97-.08-1.43,.1-.27-.07-.53,.07-.77,.45-.32,.26-.53,.63-.6,1.04-.8,5.74-1.07,11.54-.78,17.33-.05,.01-.09,.05-.14,.03-.92-.41-1.78-3.49-2.27-7.25-.13-3.05-.41-6.11-.34-9.18,.34-5.04,1.59-7.75,3.52-9.87,.5-.4,.9-.92,1.17-1.5,1.63-2.67,2.49-5.75,2.47-8.88,.17-4.55,5.89-9.6,9.93-13.8s8.08-11.11,8.08-14.64c0,0,.24-.57,.72-1.48,2.34-3.72,5.2-7.08,8.5-9.99M226.96,5.87c6.06,3.7,7.8,9.51,10.6,7.57,.31-.21,.7-.49,1.12-.79,.74-.02,1.4-.47,1.68-1.15v-.02c3.73-2.52,9.42-5.92,13.52-5.28,5.04,.79,8.31,1.58,6.77,3.47-.29,.23-.59,.45-.87,.71-1.02,.98-1.86,2.13-2.48,3.4-.44,.58-.98,1.08-1.59,1.47-1,.23-1.98,.48-2.95,.81-2.3,.76-4.51,1.79-6.57,3.07-.7,.46-1.38,.95-2.04,1.48-1.21,.58-2.33,1.12-3.24,1.6-2.51,1.31-4.46,.21-7.36-1.83-1.54-1.47-3.32-2.68-5.25-3.57-.17-.11-.33-.21-.51-.32-2.45-1.33-5.06-2.34-7.76-3.01-.63-.28-1.25-.56-1.86-.89-2.71-1.47-5.23-3.29-7.47-5.41,2.23-.7,4.46-1.38,6.69-2.04,2.84-.85,5.89-.75,8.66,.29,.31,.13,.61,.28,.9,.45m48.75,6.61c5.13,2.27,12.78,5.88,13.69,7.18,1.18,1.68-2.02,3.54-4.04,6.06s-3.7,7.07-.84,9.59,9.76,3.2,13.13,8.08c3.33,4.83,8.47,11.48,4.32,13.24-.15,.04-.3,.07-.45,.11-.99,.29-1.96,.65-2.9,1.09-4.31,1.53-9.5,3.9-10.55,10.64-.12,.77-.19,1.53-.24,2.28-.29,1.46-.41,2.95-.34,4.44,.11,2.51,.59,5.02,.45,7.5-.21,1.76-.82,2.99-2.39,3.45-.28,.08-.62,.18-1.01,.28-2.84,.7-5.68,1.36-8.56,1.92-.3,.06-.6,.11-.9,.17-5.41,1.06-10.9,1.61-16.41,1.66-5.3,0-10.41-.98-15.65-1.56-.2-.03-.39-.03-.59-.05-1.44-1-2.37-2.68-2.48-5.62-.27-6.77-.52-15.61,2.02-21.12,.66-1.07,1.42-2.07,2.29-2.98,.54-.56,1.11-1.09,1.7-1.61,6.07-4.32,18.47-10.96,23.78-10.65,4.06,.24,10.16,3.11,13.96,4.21h.01c.63,.56,1.52,.72,2.31,.42,.32,.02,.63-.07,.89-.25,1.68-1.51,2.35-3.7-2.19-5.39s-12.29-4.04-17-2.02c-.13,.06-.21,.08-.32,.12-.38,.03-.76,.06-1.13,.1-.26-.88,4.86-5.88,5.66-10.15,.28-1.64,.29-3.32,.04-4.97,.1-.77,.18-1.55,.23-2.32,.12-1.07-.65-2.04-1.72-2.16-.73-1-1.61-1.12-2.41,.36-1.78,3.27-1.78,10.87-5.68,16.05l-.02,.03c-.93,1.24-2.08,2.29-3.39,3.1-7.26,4.45-18.21,8.42-19.6,11.27,0-.39,0-.79-.01-1.18l.25-4.2s-1.35-19.02,1.18-21.04,6.39-3.87,9.43-5.72,10.26-4.54,15.99-3.54c3.19,.56,7.48,2.28,10.82,3.33,.81,.46,1.6,.96,2.36,1.5,2.38,1.72,4.66-2.23,2.3-3.93-4.83-3.41-10.53-5.4-16.44-5.74-.9-.47-1.24-.93-.56-1.39,1.52-1.01,2.56-2.14,3.95-2.55,2.34,.7,4.73,1.29,7.1,1.93m23.18,15.13c1.21,.73,2.57,1.18,3.97,1.31,3.54,.17,8.75,3.2,9.93,5.72s1.85,4.88,5.05,6.23,7.57,5.05,10.1,7.4c2.07,1.93,2.79,5.8,5.59,8.14,1.63,1.75,3.82,2.9,5.03,5.05,2.09,3.72,1.72,7.96,1.7,12.12l-.03,.77c-.14,1.58,.02,3.17,.47,4.69,.02,.09,.03,.18,.05,.28,1.25,5.37,8.86,3.76,10.8,8.65,.13,.32,.33,.6,.57,.84,1.46,3.3,2.28,6.85,2.41,10.45,.16,4.27,0,5.75-1.7,9.4-.2-3.28-.83-6.53-1.87-9.65-.93-2.76-5.33-1.58-4.39,1.21,1.97,5.85,2.38,12.12,1.17,18.18-.04,.13-.07,.25-.11,.38-1.68,6.06-5.39,9.09-8.92,12.79s-9.43,5.38-12.29,5.55c-.35,0-.7-.06-1.03-.18-2.44-1.89-4.9-3.77-7.51-5.43-.87-.74-1.85-1.34-2.9-1.79-3.03-1.01,.17-1.51,3.37-2.86s14.31-9.26,17.34-13.97,5.05-13.3,3.37-20.2c-1.17-4.89-3.79-9.3-7.52-12.67-1.24-1.19-2.61-2.25-4.06-3.17-.91-.62-2.15-.4-2.8,.49-.48,.09-.62,.38-.45,.88-.33,.97,.07,2.05,.95,2.56,.57,.36,1.13,.75,1.66,1.16,1.44,1.75,3.38,4.03,5.66,6.88,.09,.11,.17,.23,.25,.34,1.78,3.55,2.51,7.52,2.12,11.47-1.36,5.7-5.36,11.02-7.79,14.25-5.24,4.47-12.16,7.21-18.16,10.51-.11,.04-.23,.08-.33,.12-1.47,.39-2.98,.58-4.5,.55-2.04-.37-4.1-.57-6.17-.62-5.41-.01-10.8,.63-16.06,1.91-5.38,1.08-10.63,2.75-15.64,4.97-2.65,1.24-.34,5.17,2.3,3.93,.12-.06,.25-.1,.37-.15,5.98,.17,20.81-5.45,29.27-5.87,4.88-.24,10.1,1.4,14.23,3.37,2.34,1.26,4.58,2.68,6.72,4.26,.43,.33,.75,.77,.94,1.28,.13,1.45-4.66,4.74-10.06,7.47-1.01,.36-2.03,.71-3.06,1.01-4.73,1.36-9.58,2.21-14.49,2.54-.27,.02-.55,.02-.82,.04-1.51-.19-2.84-.43-3.89-.62-1.07-.2-1.24-.62-1-1.19l.07-.05c.13-.1,.27-.2,.4-.29,.27-.19,.55-.37,.83-.55,.59-.37,1.2-.7,1.83-1.01,1.08-.64,1.44-2.03,.82-3.12-.38-.6-1.01-.99-1.72-1.05-1.92-1.99-6.75,2.74-9.31,6.42-.97,1.29-2.22,2.34-3.66,3.06-.18,.07-.36,.16-.52,.27-2.99,.84-5.93,1.88-8.85,2.93-3.51,1.25-7.08,2.54-10.7,3.46-2.95,.5-5.93,.79-8.92,.89-3.54,0-4.21-1.35-5.72-3.37-.64-.82-1.04-1.8-1.15-2.84v-1.49c.06-.75,.16-1.5,.31-2.24,.42-3.07,.42-6.19,0-9.26-.34-3.54-.17-14.47-.17-16.66s1.34-1.51,6.22-.34,23.73-1.01,35.18-2.69,18.68-8.92,20.36-11.95c.09-.16,.16-.32,.23-.47,.4-.65,.72-1.35,.96-2.08,.89-2.8-3.51-4-4.39-1.21-.39,1.06-1.06,2-1.94,2.71-1.21,.89-2.68,1.88-4.26,2.91-1.74,1.07-3.55,2-5.43,2.79-4.8,1.93-9.85,3.19-15,3.73-5.65,.56-11.33,.72-17,.46-2.53-.08-5.12-.09-7.71-.21-3.14-.5-5.75-1.13-6.56-1.74-.74-.56-1.05-2.89-1.15-5.76-.01-1.43-.02-2.85-.04-4.27,.05-3.9,.26-7.76,.18-9.15-.17-3.03,1.85-3.87,5.22-2.02s25.58,0,33.49-1.01,13.13-5.89,25.41-4.21c1.03,.15,2.06,.36,3.06,.64,1.79,.71,3.53,1.54,5.21,2.49l.04,.02c4.09,3.26,4.35,8.14,5.16,11.5,.1,.43,.23,.85,.39,1.26,.02,.64,.37,1.22,.91,1.56,.33,.44,.92,.57,1.41,.33,1.21-.01,2.18-.98,2.21-2.18,.06-1.31,.07-2.62,0-3.91,.21-2.15-.27-4.32-1.38-6.18-.5-1.07-1.15-2.05-1.94-2.93-2.22-2.24-4.88-3.98-7.82-5.11h-.01c-1.8-1.05-3.76-1.78-5.8-2.19-3.9-.99-7.99-1.01-11.9-.06-.53-.14-.93-.87-1.18-1.99-.01-1.52-.16-3.05-.29-4.58,.13-3.09,.74-6.14,1.82-9.03,2.52-6.39,8.78-7.5,17.17-7.91,.21-.01,.42,0,.63,.01,3.62,.71,7.09,2.08,10.21,4.04,3.71,2.73,6.93,6.18,9.52,8.23,3.98,3.15,5.05,1.95,5.4,.12,.41-.63,.43-1.45,.05-2.1-.66-2.12-4.27-4.36-6.96-6.6-1.37-1.02-2.83-1.91-4.36-2.68-3.99-2.69-8.48-4.56-13.2-5.5-.56-.15-1.13-.23-1.71-.25-.62-.07-1.25-.12-1.88-.14-.02-.36-.05-.72-.09-1.07,.91-4.44-4.5-11.61-8.37-16.62-4.04-5.22-9.59-4.04-11.11-7.07s4.54-5.71,4.54-5.71h.06c1.33,1.49,3.17,1.93,5.06,2.22m-65.87,60.55c-2.26,.56-4.56,.99-6.87,1.29-1.54,.2-3.08,.39-4.62,.55-2.05,.2-3.99,.33-5.51,.35-4.23,.08-8.44-.48-12.5-1.68-1.69-.63-3.34-1.36-4.95-2.18-.85-.5-1.65-1.07-2.41-1.7-6.06-5.05-11.95-4.54-11.28-6.57h0c.79-1.47,1.26-3.1,1.35-4.77,.63-2.9-.26-5.93-2.36-8.03-.14-.13-.3-.27-.44-.4-3.03-3.94-7.03-7.03-11.6-8.97-.58-.73-.79-1.37-.42-1.9,.26-.37,.6-.91,.97-1.55,2.53-3.48,4.7-7.25,7.76-10.28,.39-.39,.81-.76,1.23-1.11,.31-.2,.64-.37,.97-.51,5.05-2.19,10.26-1.34,9.93-6.39l-.02-.07c.25-1.84-1.22-3.31-2.64-4.61-.59-.63-1.23-1.24-1.88-1.84-1.75-1.84-3.26-3.9-4.5-6.11l.04-.03c1.66-1.33,11.81-9.29,22.46-12.75,0,0,1.53,1.35,3.04,2.65,.16,.14,.32,.29,.49,.42,.86,.75,1.65,1.42,2.06,1.75-7.32,.18-14.61,1.43-20.27,6.53-.84,.68-.97,1.91-.3,2.76-.19,2.9,2.23,1.29,6.04-.79,3.52-1.66,7.2-2.94,10.99-3.81,3.5-.44,7.03-.53,10.54-.25,.95,.23,1.88,.56,2.75,1,.29,.1,.61,.11,.91,.04h.05c1.21,.43,2.46,.84,3.66,1.35,.08,.05,.16,.08,.23,.13,1.51,.99,2.92,1.82,4.14,2.65,1.11,1.05,2.14,2.19,3.34,3.12,.5,.8,.82,1.7,.93,2.64,.5,4.04-.84,9.93-.51,12.79s.78,5.65,.84,7.74c.01,.47,.04,1.09,.06,1.75v.35c0,.73,.01,1.47,.02,2.21-.04,1.21-.18,1.97-.58,1.25-.84-1.52-7.4-7.74-11.61-9.26-.07-.02-.14-.05-.21-.08-4.76-2.76-10.38-5.72-13.83-9.84-1.44-2.61-2.17-7.49-3.23-10.04-.25-2.22-2.75-2.54-3.13-.19-2.3,3.7,.41,9,3.56,13.41,1.05,1.47,3.36,3.17,6.16,4.97,2.26,1.76,4.61,3.38,7.06,4.86,4.12,2.54,8.31,4.98,11.26,8.9,.13,.17,.26,.36,.39,.54,2.63,4.29,4.09,9.19,4.25,14.22,.01,.54,.04,1.11,.07,1.7,0,1.27,.02,2.54,.03,3.82,.02,2.45,.04,4.89,.06,7.34-.33,1.36-.94,2.33-2.01,2.62"/></g></g></g></svg>