<?xml version="1.0" encoding="UTF-8"?><svg id="Lag_2" xmlns="http://www.w3.org/2000/svg" viewBox="0 0 347.97 284.49"><defs><style>.cls-1{fill:#fff;}.cls-2{opacity:.51;}.cls-2,.cls-3{fill:#6c7b53;}</style></defs><g id="_ÎÓÈ_1"><rect class="cls-1" x="22.34" y="82.73" width="94.43" height="57.43" rx="28.71" ry="28.71"/><rect class="cls-1" x="101.21" y="92.74" width="31.17" height="18.7"/><rect class="cls-1" x="126.34" y="92.74" width="5.81" height="18.7"/><rect class="cls-1" x="118.97" y="90.9" width="7.68" height="22.39"/><polygon class="cls-1" points="130.66 92.77 130.66 95.09 130.66 109.08 130.66 111.39 157.4 122.27 157.4 109.08 157.4 95.09 157.4 81.9 130.66 92.77"/><rect class="cls-1" x="10.74" y="90.9" width="12.41" height="12.73"/><path class="cls-1" d="M10.09,104.8h0c.8,0,1.44-.65,1.44-1.44v-12.2c0-.8-.65-1.44-1.44-1.44h0c-.8,0-1.44,.65-1.44,1.44v12.2c0,.8,.65,1.44,1.44,1.44Z"/><rect class="cls-1" x="22.22" y="112.7" width="2.71" height="28.55" transform="translate(121.65 42.95) rotate(59.93)"/><rect class="cls-1" x="58.04" y="136.37" width="17.61" height="11.26"/><path class="cls-1" d="M66.84,140.9c-8.12,0-14.71,6.58-14.71,14.71h29.42c0-8.12-6.58-14.71-14.71-14.71Z"/><rect class="cls-1" x="50.47" y="155.24" width="32.75" height="6.44"/><g><rect class="cls-1" x="-31.03" y="217.41" width="123.28" height="5.42" transform="translate(-183.34 159.96) rotate(-66.38)"/><rect class="cls-1" x="64.13" y="159.34" width="5.42" height="123.11"/><rect class="cls-1" x="51.54" y="159.34" width="15.3" height="6.94"/><path class="cls-1" d="M6.08,273.59c-2.26,0-4.09,1.83-4.09,4.09H10.17c0-2.26-1.83-4.09-4.09-4.09Z"/><path class="cls-1" d="M66.84,280.4c-2.26,0-4.09,1.83-4.09,4.09h8.18c0-2.26-1.83-4.09-4.09-4.09Z"/><rect class="cls-1" x="100.37" y="158.49" width="5.42" height="123.28" transform="translate(-79.56 59.75) rotate(-23.62)"/><rect class="cls-1" x="66.84" y="159.34" width="15.3" height="6.94"/><path class="cls-1" d="M127.61,273.59c2.26,0,4.09,1.83,4.09,4.09h-8.18c0-2.26,1.83-4.09,4.09-4.09Z"/></g><g><rect class="cls-1" x="30.42" y="151.84" width="35.3" height="2.77" transform="translate(-18.08 6.9) rotate(-6.91)"/><path class="cls-1" d="M35.21,158.06l-8.53,1.03c-1.88,.23-3.59-1.11-3.82-3h0c-.23-1.88,1.11-3.59,3-3.82l8.53-1.03c1.88-.23,3.59,1.11,3.82,3h0c.23,1.88-1.11,3.59-3,3.82Z"/></g><circle class="cls-3" cx="30.48" cy="49.51" r="17.54"/><path class="cls-1" d="M30.48,19.03C13.65,19.03,0,32.68,0,49.51s13.65,30.48,30.48,30.48,30.48-13.65,30.48-30.48-13.65-30.48-30.48-30.48Zm9.41,12.94c2.25-2.25,5.89-2.25,8.13,0,2.25,2.25,2.25,5.89,0,8.13-2.25,2.25-5.89,2.25-8.13,0s-2.25-5.89,0-8.13ZM5.67,49.51c0-3.18,2.57-5.75,5.75-5.75s5.75,2.57,5.75,5.75-2.57,5.75-5.75,5.75-5.75-2.57-5.75-5.75Zm15.4,17.54c-2.25,2.25-5.89,2.25-8.13,0s-2.25-5.89,0-8.13,5.89-2.25,8.13,0,2.25,5.89,0,8.13Zm0-26.95c-2.25,2.25-5.89,2.25-8.13,0-2.25-2.25-2.25-5.89,0-8.13,2.25-2.25,5.89-2.25,8.13,0,2.25,2.25,2.25,5.89,0,8.13Zm9.41,34.21c-3.18,0-5.75-2.57-5.75-5.75s2.57-5.75,5.75-5.75,5.75,2.57,5.75,5.75-2.57,5.75-5.75,5.75Zm0-38.11c-3.18,0-5.75-2.57-5.75-5.75s2.57-5.75,5.75-5.75,5.75,2.57,5.75,5.75-2.57,5.75-5.75,5.75Zm17.54,30.84c-2.25,2.25-5.89,2.25-8.13,0-2.25-2.25-2.25-5.89,0-8.13,2.25-2.25,5.89-2.25,8.13,0s2.25,5.89,0,8.13Zm1.51-11.79c-3.18,0-5.75-2.57-5.75-5.75s2.57-5.75,5.75-5.75,5.75,2.57,5.75,5.75-2.57,5.75-5.75,5.75Z"/><circle class="cls-1" cx="11.34" cy="133.79" r="3.21"/><polygon class="cls-2" points="157.4 81.9 347.97 9.57 347.97 207.42 157.4 122.27 157.4 81.9"/><circle class="cls-3" cx="107.56" cy="40.21" r="26.36"/><path class="cls-1" d="M91.87,3.17c-20.38,8.61-29.92,32.1-21.31,52.48,8.61,20.38,32.1,29.92,52.48,21.31,20.38-8.61,29.92-32.1,21.31-52.48C135.74,4.1,112.25-5.44,91.87,3.17Zm19.17,7.12c.98-2.24,3.29-3.59,5.72-3.32,1.37,.15,2.61,.51,3.71,.98,1.12,.43,2.26,1.03,3.34,1.88,1.93,1.5,2.65,4.08,1.79,6.37-2.93,7.87-8.23,12.27-11.69,14.43-1.74,1.09-4.04,.16-4.54-1.84-.98-3.96-1.72-10.81,1.65-18.5Zm-22.08,6.17c-.89-2.28-.21-4.86,1.7-6.39,1.07-.86,2.2-1.48,3.32-1.93,1.09-.49,2.33-.87,3.69-1.03,2.43-.3,4.75,1.01,5.77,3.24,3.48,7.64,2.85,14.5,1.93,18.47-.46,2-2.75,2.97-4.51,1.9-3.49-2.11-8.85-6.44-11.9-14.26Zm-14.65,14.48c.14-1.37,.49-2.61,.96-3.71,.42-1.12,1.02-2.26,1.86-3.36,1.49-1.94,4.06-2.67,6.36-1.83,7.88,2.89,12.32,8.16,14.5,11.61,1.1,1.74,.18,4.04-1.81,4.54-3.95,1-10.8,1.78-18.51-1.55-2.24-.97-3.6-3.27-3.35-5.7Zm9.64,27.75c-2.27,.9-4.86,.23-6.4-1.67-.87-1.07-1.49-2.2-1.94-3.31-.49-1.09-.88-2.32-1.05-3.69-.31-2.42,.99-4.76,3.21-5.79,7.62-3.53,14.48-2.93,18.46-2.03,2.01,.45,2.98,2.73,1.93,4.5-2.09,3.5-6.39,8.89-14.2,11.97Zm20.03,11.16c-.97,2.24-3.28,3.6-5.71,3.34-1.37-.14-2.61-.5-3.71-.97-1.12-.42-2.26-1.02-3.35-1.87-1.93-1.5-2.66-4.07-1.82-6.36,2.9-7.88,8.18-12.3,11.63-14.48,1.74-1.1,4.04-.17,4.54,1.82,.99,3.96,1.76,10.8-1.59,18.5Zm22.06-6.25c.89,2.27,.22,4.86-1.68,6.4-1.07,.87-2.2,1.49-3.31,1.94-1.09,.49-2.32,.88-3.69,1.05-2.42,.31-4.76-1-5.78-3.22-3.51-7.62-2.9-14.49-1.99-18.46,.46-2,2.74-2.98,4.5-1.92,3.5,2.1,8.87,6.41,11.95,14.22Zm14.53-14.29c-.15,1.37-.5,2.61-.97,3.71-.42,1.12-1.03,2.26-1.87,3.35-1.5,1.93-4.07,2.65-6.36,1.81-7.87-2.92-12.29-8.2-14.45-11.66-1.09-1.74-.17-4.04,1.83-4.54,3.96-.99,10.81-1.74,18.5,1.62,2.24,.98,3.59,3.28,3.33,5.71Zm-3.4-13.32c-7.63,3.5-14.49,2.87-18.47,1.96-2-.46-2.97-2.74-1.91-4.5,2.1-3.49,6.42-8.86,14.24-11.92,2.28-.89,4.86-.21,6.4,1.69,.86,1.07,1.49,2.2,1.93,3.31,.49,1.09,.87,2.33,1.04,3.69,.3,2.43-1.01,4.76-3.23,5.77Z"/></g></svg>