<svg viewBox="0 0 347.97 284.49" xmlns="http://www.w3.org/2000/svg"><g fill="#fff"><rect height="57.43" rx="28.71" width="94.43" x="22.34" y="82.73"/><path d="m101.21 92.74h31.17v18.7h-31.17z"/><path d="m126.34 92.74h5.81v18.7h-5.81z"/><path d="m118.97 90.9h7.68v22.39h-7.68z"/><path d="m130.66 92.77v2.32 13.99 2.31l26.74 10.88v-13.19-13.99-13.19z"/><path d="m10.74 90.9h12.41v12.73h-12.41z"/><path d="m10.09 104.8c.8 0 1.44-.65 1.44-1.44v-12.2c0-.8-.65-1.44-1.44-1.44-.8 0-1.44.65-1.44 1.44v12.2c0 .8.65 1.44 1.44 1.44z"/><path d="m22.22 112.7h2.71v28.55h-2.71z" transform="matrix(.50105768 .86541389 -.86541389 .50105768 121.65 42.95)"/><path d="m58.04 136.37h17.61v11.26h-17.61z"/><path d="m66.84 140.9c-8.12 0-14.71 6.58-14.71 14.71h29.42c0-8.12-6.58-14.71-14.71-14.71z"/><path d="m50.47 155.24h32.75v6.44h-32.75z"/><path d="m-31.03 217.41h123.28v5.42h-123.28z" transform="matrix(.40066888 -.91622293 .91622293 .40066888 -183.34 159.96)"/><path d="m64.13 159.34h5.42v123.11h-5.42z"/><path d="m51.54 159.34h15.3v6.94h-15.3z"/><path d="m6.08 273.59c-2.26 0-4.09 1.83-4.09 4.09h8.18c0-2.26-1.83-4.09-4.09-4.09z"/><path d="m66.84 280.4c-2.26 0-4.09 1.83-4.09 4.09h8.18c0-2.26-1.83-4.09-4.09-4.09z"/><path d="m100.37 158.49h5.42v123.28h-5.42z" transform="matrix(.91622293 -.40066888 .40066888 .91622293 -79.56 59.75)"/><path d="m66.84 159.34h15.3v6.94h-15.3z"/><path d="m127.61 273.59c2.26 0 4.09 1.83 4.09 4.09h-8.18c0-2.26 1.83-4.09 4.09-4.09z"/><path d="m30.42 151.84h35.3v2.77h-35.3z" transform="matrix(.99273636 -.12031011 .12031011 .99273636 -18.08 6.9)"/><path d="m35.21 158.06-8.53 1.03c-1.88.23-3.59-1.11-3.82-3-.23-1.88 1.11-3.59 3-3.82l8.53-1.03c1.88-.23 3.59 1.11 3.82 3 .23 1.88-1.11 3.59-3 3.82z"/></g><circle cx="30.48" cy="49.51" fill="#6c7b53" r="17.54"/><path d="m30.48 19.03c-16.83 0-30.48 13.65-30.48 30.48s13.65 30.48 30.48 30.48 30.48-13.65 30.48-30.48-13.65-30.48-30.48-30.48zm9.41 12.94c2.25-2.25 5.89-2.25 8.13 0 2.25 2.25 2.25 5.89 0 8.13-2.25 2.25-5.89 2.25-8.13 0s-2.25-5.89 0-8.13zm-34.22 17.54c0-3.18 2.57-5.75 5.75-5.75s5.75 2.57 5.75 5.75-2.57 5.75-5.75 5.75-5.75-2.57-5.75-5.75zm15.4 17.54c-2.25 2.25-5.89 2.25-8.13 0s-2.25-5.89 0-8.13 5.89-2.25 8.13 0 2.25 5.89 0 8.13zm0-26.95c-2.25 2.25-5.89 2.25-8.13 0-2.25-2.25-2.25-5.89 0-8.13 2.25-2.25 5.89-2.25 8.13 0 2.25 2.25 2.25 5.89 0 8.13zm9.41 34.21c-3.18 0-5.75-2.57-5.75-5.75s2.57-5.75 5.75-5.75 5.75 2.57 5.75 5.75-2.57 5.75-5.75 5.75zm0-38.11c-3.18 0-5.75-2.57-5.75-5.75s2.57-5.75 5.75-5.75 5.75 2.57 5.75 5.75-2.57 5.75-5.75 5.75zm17.54 30.84c-2.25 2.25-5.89 2.25-8.13 0-2.25-2.25-2.25-5.89 0-8.13 2.25-2.25 5.89-2.25 8.13 0s2.25 5.89 0 8.13zm1.51-11.79c-3.18 0-5.75-2.57-5.75-5.75s2.57-5.75 5.75-5.75 5.75 2.57 5.75 5.75-2.57 5.75-5.75 5.75z" fill="#fff"/><circle cx="11.34" cy="133.79" fill="#fff" r="3.21"/><path d="m157.4 81.9 190.57-72.33v197.85l-190.57-85.15z" fill="#6c7b53" opacity=".51"/><circle cx="107.56" cy="40.21" fill="#6c7b53" r="26.36"/><path d="m91.87 3.17c-20.38 8.61-29.92 32.1-21.31 52.48s32.1 29.92 52.48 21.31 29.92-32.1 21.31-52.48-32.1-29.92-52.48-21.31zm19.17 7.12c.98-2.24 3.29-3.59 5.72-3.32 1.37.15 2.61.51 3.71.98 1.12.43 2.26 1.03 3.34 1.88 1.93 1.5 2.65 4.08 1.79 6.37-2.93 7.87-8.23 12.27-11.69 14.43-1.74 1.09-4.04.16-4.54-1.84-.98-3.96-1.72-10.81 1.65-18.5zm-22.08 6.17c-.89-2.28-.21-4.86 1.7-6.39 1.07-.86 2.2-1.48 3.32-1.93 1.09-.49 2.33-.87 3.69-1.03 2.43-.3 4.75 1.01 5.77 3.24 3.48 7.64 2.85 14.5 1.93 18.47-.46 2-2.75 2.97-4.51 1.9-3.49-2.11-8.85-6.44-11.9-14.26zm-14.65 14.48c.14-1.37.49-2.61.96-3.71.42-1.12 1.02-2.26 1.86-3.36 1.49-1.94 4.06-2.67 6.36-1.83 7.88 2.89 12.32 8.16 14.5 11.61 1.1 1.74.18 4.04-1.81 4.54-3.95 1-10.8 1.78-18.51-1.55-2.24-.97-3.6-3.27-3.35-5.7zm9.64 27.75c-2.27.9-4.86.23-6.4-1.67-.87-1.07-1.49-2.2-1.94-3.31-.49-1.09-.88-2.32-1.05-3.69-.31-2.42.99-4.76 3.21-5.79 7.62-3.53 14.48-2.93 18.46-2.03 2.01.45 2.98 2.73 1.93 4.5-2.09 3.5-6.39 8.89-14.2 11.97zm20.03 11.16c-.97 2.24-3.28 3.6-5.71 3.34-1.37-.14-2.61-.5-3.71-.97-1.12-.42-2.26-1.02-3.35-1.87-1.93-1.5-2.66-4.07-1.82-6.36 2.9-7.88 8.18-12.3 11.63-14.48 1.74-1.1 4.04-.17 4.54 1.82.99 3.96 1.76 10.8-1.59 18.5zm22.06-6.25c.89 2.27.22 4.86-1.68 6.4-1.07.87-2.2 1.49-3.31 1.94-1.09.49-2.32.88-3.69 1.05-2.42.31-4.76-1-5.78-3.22-3.51-7.62-2.9-14.49-1.99-18.46.46-2 2.74-2.98 4.5-1.92 3.5 2.1 8.87 6.41 11.95 14.22zm14.53-14.29c-.15 1.37-.5 2.61-.97 3.71-.42 1.12-1.03 2.26-1.87 3.35-1.5 1.93-4.07 2.65-6.36 1.81-7.87-2.92-12.29-8.2-14.45-11.66-1.09-1.74-.17-4.04 1.83-4.54 3.96-.99 10.81-1.74 18.5 1.62 2.24.98 3.59 3.28 3.33 5.71zm-3.4-13.32c-7.63 3.5-14.49 2.87-18.47 1.96-2-.46-2.97-2.74-1.91-4.5 2.1-3.49 6.42-8.86 14.24-11.92 2.28-.89 4.86-.21 6.4 1.69.86 1.07 1.49 2.2 1.93 3.31.49 1.09.87 2.33 1.04 3.69.3 2.43-1.01 4.76-3.23 5.77z" fill="#fff"/></svg>