<svg viewBox="0 0 271.63 305.21" xmlns="http://www.w3.org/2000/svg"><g fill="#fff"><path d="m98.83 71.86c-.27.51-.51.98-.73 1.42-.21.34-.42.7-.61 1.06-.68 1.29-1.09 2.66-1.94 3.87-.64.9-1.42 1.69-2.21 2.46-.49.37-.96.8-1.38 1.28-.21.2-.4.4-.54.62-.04.06-.07.13-.1.2-.95 1.39-1.47 3.1-1.11 4.91 0 .03-.01.07-.02.11v.03c-.28.03-1.7.34-1.82 3.42v.31c-.07.6-.09 1.21-.08 1.82.03 1.09.15 2.19.17 3.28 0 .45-.02.86-.09 1.25-.03.2-.03.38 0 .53-.03.23-.07.45-.12.68-.19.84.79 1.29 1.32.92.11.06.2.15.29.23.22.28.42.62.57 1.07.16.48.41 1.05.76 1.67.07.19.15.37.24.54.54 1.01 1.35 1.86 2.26 2.56 1.04.89 2.33 1.62 3.91 1.96.05 0 .09.02.13.03.41.13.83.25 1.25.36.39.11.79.19 1.19.29 2.16.72 2.92 1.47 4.09 2.37 1.56 1.18 5.98 2.49 9.47 2.24 1.72-.12 3.56.18 5.14.73.69.28 1.36.6 2.03.94.7.42 1.26.89 1.62 1.38 1.31 1.81 1.99 4.24 4.42 3.36 1.17-.42 2.16-1.05 3.16-1.57.17-.06.34-.12.51-.18.5-.17 1-.33 1.49-.5.02 0 .04.01.06.01.08 0 .15.01.23.02.33.05.64.14.95.26.11.04.22.04.34.02.11 0 .21-.04.31-.1.08.03.16.04.24.04.36-.02.71-.07 1.07-.13 2.53.84 5.66 2.81 7.22 2.56.44-.07.75-.17.97-.31.16-.05.32-.1.46-.17.51-.26.8-.73.87-1.29.04-.31-.03-.64-.04-.96.03-.13.06-.26.1-.39 0-.03.02-.05.03-.08.85-1.64 1.54-3.34 6.09-3.34 4.8 0 8.53.25 10.9-1.56.67-.51 1.12-.98 1.48-1.39 0 0 .02-.01.03-.02.27-.2.46-.46.66-.72.07-.09.14-.2.22-.32.25-.25.51-.46.87-.61.13 0 .27-.02.36-.03.41-.06.82-.14 1.22-.24 1.14-.28 2.26-.73 3.29-1.31 1.42-.76 2.77-1.78 3.63-2.9.23-.29.42-.58.6-.85.81-1.07 1.48-2.25 2-3.5.02-.02.05-.05.07-.07.6-.45 1.52-.46 1.89-1.24.1-.13.16-.3.15-.51s.01-.08.02-.12c.12-1.43 1-10.84-3.68-12.21 0 0-2.3-.31-1.93-3.24s-.31-4.86-1.81-5.79c-.08-.05-.14-.09-.21-.14-.09-.08-.17-.16-.26-.24-.37-.3-.75-.58-1.02-.99-.3-.46-.47-.99-.73-1.47-.32-.59-.73-1.11-1.19-1.58-.78-.94-1.73-1.63-2.69-2.18-1.13-.65-1.54-.87-2.13-1.72-.06-.13-.12-.28-.18-.44-.36-.92-.96-1.63-1.79-2.17-.66-.59-1.46-1.01-2.5-1.09-1.7-.14-2.56 0-3.54-1.03-.4-.68-.79-1.32-1.38-1.89-.7-.66-1.52-1.21-2.38-1.63-.05-.02-.09-.04-.14-.06-1.12-.61-2.44-1.11-3.97-1.38-.2-.04-.4-.08-.59-.12-.58-.16-1.15-.32-1.72-.5-2.3-.74-4.63-1.88-7.11-1.68-1.16.09-2.33.45-3.28 1.1-.9.51-1.14 1-1.18 1.11-.02-.02-.05-.04-.07-.06-.26-.38-1.55-2.03-4.22-2.45-1.55-.42-2.96-.12-4.44.32-4.78 1.02-11.33 3.73-13.85 7.84-.06.08-.12.15-.18.23-.61.13-1.21.3-1.81.5-2.6.67-7.41 2.43-9.58 6.54zm3.85-1.38c.14-.1.29-.21.45-.3 1.57-.99 2.5-1.74 3.4-2.29.63-.31 1.28-.59 1.94-.83.14-.05.29-.09.44-.14.43-.11.77-.22 1.06-.32.54-.13 1.09-.16 1.46-.61.06-.07.11-.13.16-.2.19.01.31.29.64.71.44.56.64 1.23 1.37 1.68.33.2.52.36.53.5-.31.07-.64.17-.91.27-.39.14-.75.32-1.09.53-1.01.33-2.14.94-2.95 2.69-.08.17-.16.34-.24.5-.19.27-.38.54-.57.81-.7 1.03-1.4 2.03-2.31 2.88-.48.45-.99.86-1.53 1.24-1.8.91-5.33 2.74-7 3.8-.33.16-.65.32-.97.48-.43.21-.5.62-.36.96-.04.16 0 .26.17.28.24.27.63.42 1.04.22 1.2-.59 2.46-1.17 3.7-1.78 1.43-.57 2.8-1.2 3.4-1.67 1.11-.86 2.63-1.59 4.07-1.11.37.18.72.39 1.06.62 1.63 1.35 2.53 2.76 2.23 4.36-.13.68-.42 1.31-.88 1.88-.26.22-.55.42-.84.59-1.89 1.1-4.16 1.39-5.98 2.63-.22.15-.44.32-.64.49-.27.22-.52.48-.73.76-.91 1.11-1.41 2.5-1.27 4.02.04.38.27.62.55.73.15.56.37.88.57.78.16-.08.24-.42.31-.87.17-.13.28-.35.26-.64-.12-1.27.28-2.25.97-3.03 1.24-1.06 4.1-1.89 5.56-2.62 1.62-.81 2.24-1.74 3.05-1.37s6.04 4.11 8.28 4.17 4.92.31 6.85-.19h.03c1.18-.15 2.36-.32 3.53-.41.22.16.37.43.43.85.07.48.13 1.23.17 2.08.01 1.3.02 2.6.03 3.9-.04.87-.12 1.53-.26 1.69-.44.5-2.93.62-4.67.69-.7.03-2.31-.07-4.09-.22-.87-.1-1.74-.21-2.59-.29-1.96-.2-4.03-.28-5.85-1.11-1.64-.75-3.01-1.96-4.23-3.27-.3-.32-.68-.31-.97-.14-.16-.02-.26.05-.27.24-.23.3-.29.74.05 1.09 1.02 1.08 2.14 2.1 3.4 2.89.06.04.11.09.16.13.19.15.5.29.86.44.05.03.1.05.15.08 1.44.67 2.97.93 4.53 1.11 1.1.18 2.11.3 2.8.3.96.11 1.92.23 2.89.33 1.61.31 3.29.7 4.22.55 1.49-.25 3.67-.9 3.8.93s.06 7.23.12 8.78-.19 3.3-1.68 3.92h-.01c-1.07.17-2.15.19-3.23.03-1.62-.25-3.1-.91-4.55-1.64-.26-.13-.51-.26-.77-.39-1.64-.88-3.38-1.62-4.02-1.93-1.06-.5-1.43-1.99-3.11-2.8-.01 0-.02 0-.03-.01-.11-.07-.23-.14-.35-.2-.13-.07-.28-.09-.42-.09-1.07-.31-1.44.1-.88.56l.08.06c-.08.35.03.75.37.93.19.1.38.2.56.32.04.03.09.06.13.09s.18.15 0 0c.08.07.17.14.25.21.15.14.3.28.44.44l.02.03s-.08.08-.17.1c-.3.07-1.04.17-1.99.19-1.12-.02-2.22-.1-3.32-.32-.78-.18-1.55-.46-2.23-.87-1.34-.81-2.46-1.23-3.24-1.57-.38-.29-.75-.58-1.16-.83-.02-.07-.03-.14-.03-.22.02-.24.11-.47.25-.69.16-.14.32-.27.49-.4.53-.39 1.1-.72 1.7-.98.06-.02.11-.04.17-.05.75-.18 3.9-.83 6.95-1.13 2-.04 4.1.01 6.06.48 2.48 1.14 5.05 2.47 4.99 1.77-.02-.27.03-.5-.03-.75.04-.3-.05-.62-.36-.83-1.2-.85-2.54-1.41-3.96-1.76-2.39-.88-5.07-1.44-6.99-1.01-2.49.56-4.67.93-6.29.25-1.38-.58-5.13-1.53-7.33-4.59-.27-.41-.52-.84-.72-1.3-1.74-3.88-.43-8.55 3.04-10.98.88-.62.04-2.08-.85-1.46-1.12.78-2.05 1.75-2.78 2.84-.99 1.35-1.78 3.06-1.88 4.71-.03.49-.02 1 .02 1.52.03 1.2.26 2.42.72 3.59.14.36.31.7.49 1.04.55 1.21 1.27 2.3 2.13 3.13 2.2 2.14 6.07 2.77 5.27 3.33-.35.18-.7.38-1.02.6-.72.5-1.33 1.15-2.04 1.66-.3.09-.62.12-.96.07-1.81-.25-5.73-1.93-6.66-4.17-.12-.29-.22-.62-.31-.98-.42-2.91-.44-5.88-.03-8.79.06-.45-.11-.91-.59-1.04-.16-.04-.35-.03-.53.04-.1-.02-.2.03-.29.17-.11.1-.2.23-.22.38-.3 2.14-.39 4.28-.29 6.41-.02 0-.03.02-.05 0-.34-.15-.66-1.29-.84-2.68-.05-1.13-.15-2.26-.12-3.4.13-1.87.59-2.87 1.3-3.65.2-.17.34-.35.43-.56.55-.83.86-1.91.91-3.29.06-1.68 2.18-3.55 3.68-5.11 1.49-1.56 2.99-4.11 2.99-5.42 0 0 .09-.21.27-.55.86-1.37 1.93-2.62 3.15-3.69zm26.36-12.08c2.24 1.37 2.89 3.52 3.92 2.8.11-.08.26-.18.42-.29.24 0 .48-.13.62-.43 1.38-.94 3.48-2.2 5-1.96 1.87.29 3.08.58 2.51 1.28-.11.08-.22.17-.32.26-.38.36-.69.79-.92 1.26-.16.21-.35.39-.59.55-.37.08-.73.18-1.09.3-.85.28-1.68.66-2.43 1.14-.26.16-.51.35-.75.55-.45.21-.86.42-1.2.59-.93.49-1.65.08-2.73-.68-.58-.56-1.23-.98-1.94-1.32-.06-.04-.12-.08-.19-.12-.87-.52-1.9-.83-2.87-1.11-.23-.1-.46-.21-.69-.33-1.01-.54-1.93-1.22-2.76-2 .82-.26 1.65-.51 2.48-.75 1.15-.34 2.21-.25 3.21.11.11.05.23.1.33.17zm18.04 2.45c1.9.84 4.73 2.18 5.07 2.66.44.62-.75 1.31-1.49 2.24s-1.37 2.62-.31 3.55 3.61 1.18 4.86 2.99c1.23 1.79 3.14 4.25 1.6 4.9-.06.01-.11.03-.17.04-.37.1-.72.24-1.07.4-1.59.57-3.51 1.45-3.91 3.94-.04.28-.07.57-.09.84-.11.54-.15 1.08-.13 1.65.04.93.22 1.86.17 2.77-.08.65-.3 1.11-.88 1.28-.11.03-.23.07-.38.1-1.05.26-2.1.5-3.17.71-.11.02-.22.04-.33.06-2 .37-4.03.62-6.07.61-1.96 0-3.85-.36-5.79-.58-.07 0-.15-.01-.22-.02-.53-.37-.87-.99-.92-2.08-.1-2.5-.19-5.78.75-7.82.25-.41.54-.78.85-1.1.2-.21.41-.4.63-.6 2.24-1.6 6.83-4.06 8.8-3.94 1.51.09 3.76 1.15 5.17 1.56.27.23.59.25.85.16.14 0 .26-.03.33-.09.62-.56.87-1.37-.81-1.99s-4.55-1.49-6.29-.75c-.05.02-.08.03-.12.05-.14.01-.28.02-.42.04-.09-.33 1.8-2.18 2.1-3.76.11-.58.1-1.24.01-1.84.04-.28.07-.57.08-.86.03-.47-.28-.74-.64-.8-.27-.37-.59-.42-.89.14-.66 1.21-.66 4.03-2.1 5.94-.33.45-.74.84-1.26 1.16-2.69 1.65-6.74 3.12-7.25 4.17 0-.15 0-.29 0-.44l.09-1.55s-.5-7.04.44-7.79c.93-.75 2.37-1.43 3.49-2.12s3.8-1.68 5.92-1.31c1.18.21 2.77.84 4 1.23.3.17.59.35.87.56.88.64 1.72-.83.85-1.46-1.77-1.28-3.91-1.99-6.08-2.13-.33-.17-.46-.34-.21-.51.56-.38.95-.79 1.46-.94.87.26 1.75.48 2.63.71zm8.58 5.6c.46.25.94.46 1.47.49 1.31.06 3.24 1.18 3.68 2.12.44.93.69 1.81 1.87 2.3 1.18.5 2.8 1.87 3.74 2.74.77.72 1.03 2.15 2.07 3.01.6.65 1.42 1.07 1.86 1.87.77 1.38.64 2.94.63 4.49 0 .1 0 .19-.01.29-.04.75.03 1.3.17 1.74 0 .03.01.07.02.1.46 1.99 3.28 1.39 4 3.2.05.13.13.23.21.31.61 1.25.85 2.85.89 3.87.06 1.58 0 2.13-.63 3.48-.08-1.21-.3-2.41-.69-3.57-.34-1.02-1.97-.58-1.63.45.73 2.16.88 4.5.43 6.73-.01.05-.03.09-.04.14-.62 2.24-1.99 3.36-3.3 4.73s-3.49 1.99-4.55 2.06c-.12 0-.25-.02-.38-.07-.9-.7-1.82-1.4-2.78-2.01-.4-.31-.77-.56-1.07-.66-1.12-.37.06-.56 1.25-1.06 1.18-.5 5.29-3.43 6.42-5.17 1.12-1.74 1.87-4.92 1.25-7.47-.44-1.79-1.49-3.61-2.78-4.69-.46-.43-.95-.83-1.5-1.17-.41-.26-.8-.11-1.04.18-.18.03-.23.14-.17.32-.1.33-.02.71.35.95.21.13.42.28.61.43.53.65 1.25 1.49 2.1 2.54.03.04.06.08.09.13.65 1.31.93 2.78.79 4.24-.5 2.11-1.98 4.08-2.88 5.27-1.94 1.65-4.5 2.67-6.72 3.89l-.12.04c-.36.13-.95.18-1.67.2-.75-.13-1.51-.21-2.28-.23-2-.04-4 .27-5.94.71-1.98.44-3.95.97-5.79 1.84-.98.46-.13 1.91.85 1.46.04-.02.09-.04.14-.06 2.21.06 7.7-2.02 10.83-2.17 1.81-.09 3.74.52 5.26 1.25.87.46 1.69 1 2.49 1.58.21.2.34.37.35.48.05.53-1.73 1.75-3.72 2.76-.37.13-.75.26-1.13.37-1.75.51-3.55.8-5.36.94-.1 0-.2 0-.31.01-.56-.07-1.05-.16-1.44-.23-.4-.07-.46-.23-.37-.44l.03-.02s.1-.07.15-.11c.1-.07.2-.14.31-.2.22-.14.44-.26.68-.37.4-.2.54-.79.3-1.15-.16-.24-.39-.36-.64-.39-.71-.73-2.5 1.01-3.44 2.38-.33.47-.81.83-1.35 1.13-.07.03-.13.06-.19.1-1.11.31-2.19.7-3.27 1.08-1.3.46-2.62.94-3.96 1.28-1.35.22-2.64.33-3.3.33-1.31 0-1.56-.5-2.12-1.25-.26-.35-.39-.69-.43-1.05v-.55c.02-.26.06-.53.11-.83.19-1 .12-2.12 0-3.43s-.06-5.36-.06-6.17.5-.56 2.3-.12c1.81.44 8.78-.37 13.02-1 4.24-.62 6.91-3.3 7.54-4.42.03-.06.06-.12.08-.17.15-.24.27-.5.35-.77.33-1.04-1.3-1.48-1.63-.45-.12.39-.39.72-.72 1-.45.33-.99.7-1.58 1.08-.64.39-1.31.75-2.01 1.03-1.76.73-3.66 1.16-5.55 1.38-2.09.24-4.19.24-6.29.17-.94-.03-1.9-.03-2.85-.08-1.16-.18-2.13-.42-2.43-.64-.27-.21-.39-1.07-.43-2.13 0-.53 0-1.05-.01-1.58.02-1.44.09-2.87.07-3.39-.06-1.12.69-1.43 1.93-.75 1.25.69 9.47 0 12.4-.37s4.86-2.18 9.41-1.56c.42.06.79.14 1.13.24.66.26 1.31.58 1.93.92h.01c1.51 1.21 1.61 3.02 1.91 4.26.04.18.09.33.15.47.02.27.15.46.34.58.17.17.35.21.52.12.4-.02.8-.29.82-.81.02-.48.02-.97 0-1.45.07-.89-.12-1.63-.51-2.29-.18-.38-.41-.74-.72-1.08-.76-.84-1.82-1.42-2.89-1.89-.71-.41-1.44-.66-2.15-.81-1.47-.41-2.91-.33-4.4-.02-.2-.05-.34-.32-.44-.74 0-.56-.06-1.13-.11-1.69.05-1.07.27-2.31.67-3.34.93-2.37 3.25-2.78 6.35-2.93h.23c1.32.23 2.59.78 3.78 1.5 1.37 1.01 2.56 2.28 3.52 3.05 1.47 1.17 1.87.72 2 .04.14-.23.17-.52.02-.78-.24-.79-1.58-1.62-2.58-2.44-.3-.25-.89-.61-1.61-.99-1.52-.98-3.16-1.73-4.89-2.03-.25-.06-.47-.09-.63-.09-.23-.03-.46-.04-.7-.05 0-.13-.02-.26-.03-.4.34-1.64-1.66-4.3-3.1-6.15-1.49-1.93-3.55-1.49-4.11-2.62s1.68-2.12 1.68-2.12h.02c.49.55 1.17.71 1.87.82zm-24.38 22.41c-.59.16-1.53.33-2.54.48-.57.07-1.14.14-1.71.21-.76.08-1.48.12-2.04.13-1.11.01-2.9-.07-4.62-.62-.63-.23-1.23-.5-1.83-.81-.31-.18-.61-.39-.89-.63-2.24-1.87-4.42-1.68-4.17-2.43.31-.59.47-1.18.5-1.76.15-.95.05-2.07-.88-2.97-.05-.05-.11-.1-.16-.15-1.03-1.43-2.67-2.61-4.29-3.32-.21-.27-.29-.51-.15-.71.1-.14.22-.34.36-.57.94-1.29 1.74-2.68 2.87-3.81.15-.14.3-.28.46-.41.12-.07.24-.14.36-.19 1.87-.81 3.8-.5 3.68-2.37 0 0 0-.02 0-.03.09-.68-.45-1.22-.98-1.71-.22-.23-.46-.46-.7-.68-.65-.68-1.2-1.44-1.67-2.26h.01c.61-.51 4.37-3.45 8.31-4.73 0 0 .57.5 1.12.98.06.05.12.11.18.16.32.28.61.52.76.65-2.71.07-5.41.53-7.5 2.42-.35.32-.32.73-.11 1.02-.07 1.08.82.48 2.23-.29.92-.43 2.44-1.06 4.07-1.41 1.55-.16 2.83-.21 3.9-.09.36.09.7.21 1.02.37.11.04.22.04.34.02h.02c.45.16.91.31 1.36.5.03.02.06.03.09.05.56.37 1.08.67 1.53.98.41.39.79.81 1.24 1.16.18.28.3.6.34.98.19 1.49-.31 3.68-.19 4.73.12 1.06.29 2.09.31 2.87 0 .17.01.4.02.65v.13.82c0 .45-.06.73-.21.46-.31-.56-2.74-2.87-4.3-3.43-.02 0-.05-.02-.08-.03-1.76-1.02-3.84-2.12-5.12-3.64-.53-.97-.8-2.77-1.19-3.71-.09-.82-1.02-.94-1.16-.07-.85 1.37.15 3.33 1.32 4.96.39.54 1.24 1.17 2.28 1.84.85.67 1.75 1.27 2.61 1.8 1.52.94 3.07 1.84 4.17 3.3.05.06.1.13.14.2 1.01 1.7 1.54 3.51 1.57 5.26 0 .2.01.41.03.63v1.41c.02.91.03 1.81.03 2.72-.12.5-.35.86-.74.97z"/><path d="m177.54 130.94c-.85 1.25-1.85 2.4-2.96 3.42-.41.37-.85.74-1.08 1.25-.19.41-.22.87-.3 1.32-.54 2.92-3.29 5-4.08 7.87-.08.29-.16.63-.42.79-.19.12-.43.12-.65.1-1.51-.17-2.77-1.3-4.09-1.88-.01 1.83 2.01 4.17 2.68 6.12.71 2.08 1.33 4.58 3.36 5.44 1.22.52 2.74.21 3.66-.74s1.18-2.48.63-3.68c-1.13.34-2.78.42-3.07-.72-.12-.48.09-.98.3-1.44 2.59-5.73 4.61-11.71 6.02-17.84z"/><path d="m189.9 140.68c-.25-4.69-1.26-8.63-3.1-14.08s-.25-8.71-.34-13.74c-.08-5.03.92-11.56-2.35-16.34 0 0 2.51-7.54 1.34-12.23s-6.12-13.83-8.13-18.52-5.53-12.82-5.45-15.59-1.26-4.02-2.68-1.17-1.84 3.69-1.17 7.88 2.09 5.61 1.17 7.88 1.84 4.19 2.43 4.69.59-1.93.42-3.6c-.17-1.68.75-3.02 1.59-1.51s3.18 4.61 2.85 7.46c-.34 2.85-1.09 4.19-.08 5.95s4.86 3.27 5.2 5.36-3.1.17-2.18 1.51 3.85 4.19 3.52 6.03c-.34 1.84-1.59 5.45-.59 7.37 1.01 1.93 1.59 2.51 1.84 6.37.25 3.85.5 8.04-.84 12.4s-1.51 6.2-.5 8.21 4.69 9.55 5.03 12.48.5 10.47.25 13.41c-.25 2.93-1.01 7.37-4.02 9.97-3.02 2.6-8.21 7.54-9.3 9.55 0 0-1.51-5.11.5-8.3 2.01-3.18 5.03-6.03 5.78-8.97.75-2.93.59-10.56.5-12.23-.08-1.68-1.09-3.6-1.34-2.18s-.84 7.04-.75 9.13-.5 5.87-3.1 8.63c-1.9 2.02-3.17 3.06-3.71 4.39-.99-1.54-3.19-2.13-4.62-3.16-1.64-1.17-2.58-3.05-3.7-4.73-.97-1.45-2.26-2.86-3.89-3.34-.2-1.08-.44-2.29-.92-3.81-1.26-3.94-2.68-9.8-8.04-12.74-1.96-1.07-3.42-1.75-4.58-2.11 2.41-.4 4.95-1.43 6.84-2.57 1.98 1.38 7.96 2.23 12.14 0 3.44-1.84 4.57-4.91 4.94-6.5.98.73 1.73 1.76 2.1 2.93-1.17.73-2.05 1.92-2.41 3.25-.27 1-.24 2.06-.46 3.07s-.76 2.05-1.73 2.43c1.4.12 2.96.19 4.02-.73 1.49-1.29 1.15-3.75 2.25-5.38.41-.6.99-1.06 1.54-1.54.67-.58 1.29-1.2 1.87-1.87.45-.51.07-4.41.01-5.09 0 0-2.39-.56-5.05.14-2.67.7-4.91-1.54-8.56-.56s-10.38 6.03-14.17 6.88c-3.79.84-5.05.14-4.63 1.4s.44 2.24-1.26 1.4c-1.71-.83-1.54-4.21-2.53-2.95-.98 1.26-2.81 4.21.56 5.47.34.13.71.21 1.09.28-.34.16-.68.37-1.04.62-2.09 1.51-4.36 3.35-2.43 3.6s1.84-3.02 4.61-2.51 3.6.42 3.44 1.84c-.17 1.42-.08 1.42-1.01 2.09-.92.67-2.43.84-1.42 1.59s.92 1.59 2.43.84.75-2.68 3.27-2.18 3.6 2.35 5.11 6.45c1.51 4.11 3.35 11.9 3.94 17.34s-.34 17.09-.84 19.1-2.35 4.44-.67 3.77 2.93-5.11 3.35-9.72-1.09-13.49.08-12.57 2.01 3.69 2.51 6.37.84 8.88-.92 12.4-1.93 3.6-2.43 6.28 1.01 5.53-3.52 4.94c-4.52-.59-6.87-1.68-9.13-5.2s-2.18-3.94-3.27-4.94-4.11-1.84-1.59-2.6c2.51-.75 3.77-1.76 2.51-2.43s-1.42-1.17-1.26-2.18c.17-1.01.25-1.26-.75-2.01-1.01-.75-1.09-1.34.5-2.09s1.76-1.34 1.51-2.51-.5-2.77.34-3.18c.84-.42 6.79-3.77 5.28-5.95s-2.72 2.1-3.18.34-.34-12.15-4.86-13.83-4.86.08-8.46 1.09-3.6-2.51-6.28-2.35c-2.68.17-6.2.75-6.95 4.44s-.08 8.38-.59 9.89c-.17.52-.5.85-.79 1.16-.31.1-.67.04-.97-.11-.41-.21-.74-.56-1.11-.84-1.36-1.01-3.44-.88-4.67.29-1.22 1.17-1.45 3.24-.5 4.65.12.17.29.35.49.32.15-.02.25-.14.35-.26.55-.68 1.1-1.36 1.65-2.04.12-.15.25-.31.43-.36.21-.07.44 0 .64.09 1.96.83 3.24 2.74 5.08 3.8.16.1.35.19.54.16.29-.04.49-.34.51-.63.27.22.41.45.36.81-.17 1.09-1.68 1.17-1.26 3.1s1.59 1.42 1.84 2.43-.77-.47 0 1.84c.77 2.32 1.84 1.51 1.51 2.85-.34 1.34-1.68.5-1.59 1.93.08 1.42 1.76 2.51.5 3.69s-6.03 4.61-7.29 5.03-5.95 2.93-8.3 3.69c-2.35.75-6.25-1.57-8.3-8.13-2.04-6.55-2.68-12.82-.92-17.09s3.18-6.12 3.18-5.2-.08 4.78-.34 7.29c-.25 2.51-.59 3.64.25 6.03s1.68 4.27 1.59 2.43c-.08-1.84.75-9.89 1.01-13.24.25-3.35.59-5.2.59-7.71s1.09-6.79 2.43-10.98 5.11-5.95 7.37-7.04 5.61-3.69 7.12-2.77c.57.35 1.15.89 1.67 1.36-.17.19-.35.35-.52.36-.93.08-1.87-.29-2.74-.21-.29.03-.53.2-.76.38-1.89 1.48-3.43 3.4-4.48 5.56-.36.74-.67 1.52-1.27 2.08s-1.6.78-2.23.26c-.72 3.05-1.15 6.16-1.29 9.29.54-2.53 1.74-4.91 3.45-6.85.1.83 1.35 1.02 2 .48.65-.53.86-1.41 1.14-2.2.45-1.24 1.15-2.38 2.07-3.33.33-.35.71-.68 1.17-.8.41-.11.84-.05 1.25 0 1.25.18 2.51.35 3.77.53.5-1.15 1.36-4.3.43-5.76.11-.49-.05-.94-1.29-1.92-.51-.4-.96-.79-1.38-1.14.56-.06 1.09-.17 1.58-.35 3.37-1.26 1.54-4.21.56-5.47s-.82 2.11-2.53 2.95c-1.71.83-1.68-.14-1.26-1.4s-.84-.56-4.63-1.4-10.52-5.89-14.17-6.88-5.89 1.26-8.56.56-5.05-.14-5.05-.14l.03.02c.02.07-.19.33 0 .33.46 2.9.09 5.03 1.03 6.97.71 1.45 2.04 2.45 3.17 3.61 1.51 1.54 2.48 3.53 3.89 5.16.41.47.87.92 1.45 1.14.49.18 1.02.18 1.54.24 1.1.12 2.16.49 3.09 1.09-1.04-1.46-2.32-2.74-3.79-3.77-.84-.59-1.75-1.1-2.51-1.79-2.3-2.08-2.93-5.79-1.44-8.51.19-.35.42-.7.62-1.05.82 1.65 2.53 4.32 5.66 6 3.99 2.14 9.62 1.46 11.85.19 1.62.93 3.65 1.76 5.66 2.21-2.03 1.49-6.46 4.8-7.81 4.88-1.42.08-.84-.59-.5-1.51s.59-2.6-.67-1.26-4.36 6.62-4.86 9.38c-.24 1.31-.35 2.42-.54 3.48-1.14.86-2.28 1.71-3.41 2.57-.45.34-.93.69-1.49.7-.62.02-1.17-.39-1.59-.85-2.25-2.5-1.69-6.5-3.39-9.41-.7-1.2-1.76-2.15-2.71-3.18-1.73-1.86-3.14-4.01-4.36-6.24-.72-1.31-4.57-12.04-5.07-12.03-2.42.04 1.56 10.75 2.22 11.88 1.15 1.96 2.64 3.72 3.69 5.74 1.99 3.82 2.33 8.37 4.56 12.05.56.92 1.23 1.79 1.56 2.81s.22 2.29-.61 2.98c-.51.42-1.18.56-1.78.83-1.85.85-2.72 3.26-2.03 5.14-.17 1.91-.11 3.95-1.04 4.5-.36.22-.82.12-1.23.03-1.6-.33-3.27-.3-4.85.08-1.86-1.68-4.09-4.14-4.83-7.49-1.09-4.94-2.6-10.47-2.09-14.08s1.34-8.13 2.51-11.14c1.17-3.02 2.43-8.97 1.59-12.57s-1.51-7.79-.5-10.39 2.18-5.87 1.76-8.13-2.68-4.19-3.1-6.2.08-4.19 1.17-6.28 2.51-3.35 2.26-5.87c-.25-2.51.25-3.77.25-3.77s.5 2.09.59 3.6c.08 1.51 0 3.69-.59 5.11s.25 2.51.25 2.51 3.27-4.61 2.93-6.87-1.17-3.69-.67-6.7c.5-3.02 3.52-6.7 2.26-6.54-1.26.17-1.93.67-2.68 2.51s-2.77 5.28-2.09 2.77c.67-2.51 3.94-7.54 5.61-10.81s5.45-7.54 7.04-8.8 1.84-2.01 1.34.67-1.09 5.28-.92 8.04c.06.95.08 1.74.16 2.34-.1.59-.12 1.24-.32 1.9-.11.38-.31.81-.7.86-.39.06-.72-.3-.88-.66-.39-.84-.34-1.81-.27-2.74.07-.92.14-1.89-.23-2.74s-1.33-1.52-2.21-1.23c.83.97.79 2.43.4 3.64s-1.05 2.34-1.35 3.58c-.45 1.92.07 4 1.14 5.66.15.23.31.46.55.59.63.35 1.39-.12 1.9-.62 1.79-1.76 3.8-5.14 3.47-7.57-.02-.63-.17-7.75 1.11-10.63 1.34-3.02 1.76-7.37-2.18-4.19s-11.48 9.38-13.49 16.51c-2.01 7.12-3.02 8.71-3.02 12.48s-.92 4.44-2.18 7.62-2.18 2.85-.67 6.54 3.27 5.11 3.27 5.11-2.6 7.29-2.6 12.57 2.18 9.72 1.17 13.66-4.27 12.23-4.27 16.76.92 5.95 1.51 10.22.17 6.37 2.85 9.13 11.65 10.39 12.74 14.08c.05.47.11.97.2 1.48.27 5.28-1.48 18.07 13.8 17.54 2.21-.08 3.48-.38 5.18-.86-.04.06-.03 0 0 0 3.19.84 6.27 3.43 9.19 4.95 2.61 1.36 5.62 1.94 8.55 1.65 3.91-.39 7.5-2.26 11.16-3.79 1.54-.37 3.04-.85 4.43-1.55.94-.24 1.9-.43 2.88-.51 2.14 2.12 4.56 3.8 7.46 4.46 10.81 2.43 18.1-.42 18.02-22.37 0 0 3.02-5.87 7.21-9.3 4.19-3.44 7.21-5.95 8.46-9.05 1.26-3.1 1.17-13.16.92-17.85zm-29.16-11.83c-3.23.74-4.11-1.82-4.11-1.82l1.15-.61c.2.61.81 1.15 2.49.54s.81-1.55.81-1.55l1.89-.47s1.01 3.17-2.22 3.91zm-52.69 0c-3.23-.74-2.22-3.91-2.22-3.91l1.89.47s-.88.94.81 1.55c1.68.61 2.29.07 2.49-.54l1.15.61s-.88 2.56-4.11 1.82zm17.12 34.74c0-.54 2.11-.07 3.54.54s2.99.14 3.95-1.02c.95-1.16-.2-1.29.27-3.74.48-2.45-2.18-3.81-4.29-3.34-2.11.48-.07 3.74-.14 4.42s-1.57.82-3.06.34c-1.5-.48-.54-1.29-.34-2.59s-.48-3.47-.95-4.63c-.48-1.16 0-3.2.75-4.15s4.42-1.29 5.72-1.16c1.29.14 2.86 1.03 3.95 1.16 1.7.2 7.42-.54 9.87.95 2.45 1.5 1.84 5.99 1.43 8.3s-1.63 3.74-2.25 4.02c-.61.27-2.25-.27-1.5-1.5s.75-3.2-.34-4.15-2.25-.82-3.68 1.29-.34 5.92.61 6.94 4.02-.68 5.1-.95c1.09-.27.14 1.57-1.5 2.45s-5.72.2-6.4-1.02.07-4.49.61-6.6-.54-1.63-1.29-1.57c-.75.07-.61 4.83-1.02 6.47s-2.25 2.52-4.97 2.25-4.08-2.18-4.08-2.72zm6.91 16.3c5.25.13 8.82 6.85 13.45 12.39-.5.03-.99.21-1.47.38-3.91 1.41-8.07 2.13-12.23 2.12-2.45 0-5.01-.3-7.06-1.66-1.21-.8-2.11-3.61-3.15-5.06 3.77-4.02 5.93-8.29 10.45-8.17zm-31.61 12.2c.47-.06.92-.23 1.29-.55.31-.27.45-.83.45-1.59.26.22.53.4.79.5 2.77 1.09 8.97 1.09 11.06-.5s7.12-4.86 6.62-3.85-5.95 5.61-7.79 6.28c-1.72.62-9.18 1.61-12.43-.29zm52.98.62s5.78 2.6 8.38-.08 2.43-4.69 2.77-7.62 2.26-7.54 2.26-7.54 1.09 2.51 1.26 4.61-.5 3.1-.08 3.85c.28.5.55.19.8-.45-.01 2.35-.29 4.64-1 6.76-.84 2.44-9.96 7.58-14.38.48z"/><path d="m138.76 191.53c.97.21 2.15-.1 2.58-1 .65-1.35-12.88-7.02-15.83-2.74 3.45 1.21 7.07.36 10.59 2.43.86.5 1.69 1.1 2.67 1.31z"/></g></svg>