<?xml version="1.0" encoding="UTF-8"?><svg xmlns="http://www.w3.org/2000/svg" viewBox="0 0 271.63 305.21"><defs><style>.f{fill:#e3e3e2;}.g,.h{fill:#fff;}.i{fill:#dadada;}.j{fill:#1d1d1b;}.h{stroke:#fff;stroke-miterlimit:10;}</style></defs><g id="a"><g><path class="g" d="M79.06,53.05c-.44,.83-.82,1.59-1.19,2.31-.35,.56-.69,1.13-.99,1.72-1.11,2.11-1.77,4.34-3.17,6.31-1.04,1.47-2.31,2.75-3.6,4-.8,.6-1.56,1.3-2.24,2.08-.34,.32-.66,.65-.88,1.01-.06,.1-.11,.21-.16,.32-1.54,2.27-2.4,5.04-1.82,8-.01,.06-.02,.12-.04,.17,0,.02-.01,.03-.01,.05-.46,.05-2.77,.55-2.96,5.57,0,.18,0,.34-.01,.51-.11,.98-.15,1.98-.12,2.97,.05,1.78,.25,3.56,.28,5.34,0,.73-.04,1.4-.14,2.04-.06,.33-.05,.61,0,.87-.05,.37-.12,.73-.2,1.1-.32,1.36,1.28,2.1,2.15,1.49,.17,.11,.32,.24,.46,.38,.35,.46,.68,1.01,.93,1.74,.27,.77,.68,1.72,1.23,2.72,.12,.31,.25,.61,.39,.87,.89,1.65,2.19,3.03,3.68,4.17,1.69,1.44,3.8,2.64,6.37,3.2,.07,.02,.14,.03,.21,.05,.67,.21,1.35,.41,2.03,.59,.64,.17,1.29,.32,1.94,.47,3.52,1.17,4.75,2.4,6.67,3.86,2.54,1.93,9.74,4.06,15.42,3.65,2.8-.2,5.79,.29,8.37,1.19,1.12,.45,2.22,.98,3.3,1.52,1.13,.68,2.05,1.45,2.64,2.25,2.13,2.94,3.25,6.9,7.2,5.48,1.91-.69,3.52-1.7,5.15-2.55,.28-.1,.55-.2,.83-.3,.81-.27,1.62-.53,2.43-.81,.03,0,.06,.02,.09,.02,.13,0,.25,.02,.38,.03,.53,.08,1.05,.22,1.55,.42,.18,.06,.36,.07,.55,.02,.18,0,.35-.06,.51-.16,.13,.04,.26,.07,.4,.06,.58-.03,1.16-.11,1.73-.21,4.12,1.37,9.22,4.58,11.76,4.17,.72-.12,1.21-.28,1.58-.51,.26-.07,.52-.16,.75-.28,.82-.42,1.31-1.2,1.42-2.1,.06-.51-.05-1.04-.07-1.56,.05-.21,.09-.43,.16-.64,.01-.04,.03-.08,.04-.12,1.38-2.66,2.51-5.44,9.91-5.44,7.81,0,13.9,.41,17.75-2.54,1.09-.83,1.83-1.59,2.42-2.26,.02-.01,.03-.02,.05-.03,.44-.32,.75-.75,1.08-1.18,.11-.14,.23-.33,.36-.52,.4-.41,.83-.74,1.42-.99,.22-.02,.44-.03,.59-.05,.67-.1,1.33-.23,1.99-.39,1.86-.46,3.68-1.19,5.36-2.14,2.31-1.24,4.51-2.9,5.91-4.72,.37-.48,.69-.94,.98-1.39,1.32-1.75,2.41-3.66,3.26-5.7,.04-.04,.08-.09,.12-.12,.98-.74,2.47-.75,3.08-2.02,.16-.21,.25-.49,.24-.83h0c0-.07,.02-.12,.03-.19,.2-2.33,1.62-17.65-5.99-19.88,0,0-3.75-.51-3.14-5.28,.61-4.77-.51-7.91-2.94-9.43-.13-.08-.23-.15-.34-.23-.14-.13-.28-.27-.43-.39-.61-.49-1.23-.95-1.66-1.61-.48-.75-.77-1.61-1.19-2.39-.52-.96-1.19-1.81-1.94-2.58-1.27-1.52-2.81-2.66-4.38-3.55-1.85-1.05-2.51-1.42-3.47-2.79-.1-.22-.19-.45-.29-.71-.58-1.5-1.57-2.66-2.91-3.54h-.01c-1.07-.96-2.38-1.65-4.07-1.78-2.77-.22-4.18,0-5.76-1.67-.65-1.11-1.28-2.15-2.24-3.07-1.13-1.08-2.47-1.97-3.87-2.65-.07-.04-.15-.07-.23-.1-1.83-1-3.98-1.81-6.47-2.24-.33-.06-.65-.12-.97-.2-.94-.25-1.87-.52-2.8-.81-3.74-1.21-7.54-3.06-11.57-2.74-1.89,.15-3.79,.73-5.34,1.79-1.47,.83-1.85,1.62-1.93,1.81-.04-.03-.07-.06-.11-.09-.43-.62-2.52-3.3-6.87-3.99-2.52-.68-4.82-.19-7.23,.51-7.78,1.66-18.45,6.07-22.56,12.77-.09,.13-.2,.24-.29,.37-.99,.22-1.97,.49-2.94,.81-4.24,1.1-12.07,3.96-15.6,10.66Zm6.27-2.24c.24-.17,.48-.34,.73-.49,2.56-1.61,4.07-2.83,5.54-3.73,1.03-.51,2.08-.97,3.15-1.35,.24-.08,.48-.14,.72-.22,.7-.19,1.26-.36,1.72-.52,.88-.21,1.77-.26,2.38-.99,.09-.11,.18-.22,.26-.33,.31,.02,.51,.48,1.04,1.15,.71,.91,1.04,2.01,2.23,2.74,.54,.33,.84,.59,.86,.82-.51,.12-1.04,.28-1.48,.44-.63,.22-1.22,.52-1.77,.86-1.65,.53-3.49,1.53-4.81,4.39-.13,.28-.26,.55-.39,.82-.31,.44-.62,.88-.92,1.32-1.14,1.67-2.28,3.3-3.76,4.7-.78,.74-1.62,1.4-2.49,2.02-2.93,1.48-8.69,4.46-11.41,6.19-.53,.26-1.06,.51-1.59,.78-.7,.35-.82,1.01-.59,1.57-.07,.25,0,.42,.28,.45,.39,.45,1.03,.69,1.7,.35,1.95-.97,4-1.91,6.03-2.91,2.32-.93,4.55-1.95,5.54-2.71,1.81-1.4,4.29-2.6,6.62-1.81,.6,.29,1.17,.63,1.72,1,2.66,2.2,4.13,4.5,3.63,7.09-.21,1.1-.69,2.14-1.43,3.07-.43,.36-.9,.68-1.37,.96-3.09,1.78-6.77,2.26-9.74,4.29-.36,.25-.71,.52-1.04,.8-.45,.36-.84,.78-1.18,1.24-1.48,1.81-2.29,4.08-2.06,6.55,.06,.61,.44,1.01,.89,1.19,.25,.91,.61,1.43,.92,1.28,.26-.13,.4-.68,.51-1.42,.28-.22,.46-.56,.42-1.05-.19-2.06,.46-3.67,1.58-4.93,2.03-1.73,6.68-3.08,9.05-4.27,2.64-1.32,3.65-2.84,4.97-2.23,1.32,.61,9.84,6.7,13.49,6.8,3.65,.1,8.01,.51,11.16-.3h.04c1.92-.25,3.84-.52,5.75-.67,.35,.27,.6,.7,.7,1.38,.11,.77,.21,2,.27,3.38,.02,2.12,.03,4.23,.05,6.35-.06,1.42-.2,2.49-.42,2.75-.71,.81-4.77,1.01-7.61,1.12-1.15,.04-3.77-.12-6.66-.36-1.42-.16-2.83-.33-4.22-.48-3.19-.33-6.56-.46-9.52-1.81-2.68-1.22-4.9-3.2-6.89-5.32-.5-.53-1.11-.51-1.58-.22-.26-.03-.42,.08-.43,.39-.38,.49-.47,1.2,.08,1.78,1.65,1.76,3.48,3.42,5.54,4.7,.09,.07,.18,.14,.27,.2,.32,.24,.81,.48,1.4,.72,.08,.04,.16,.09,.25,.13,2.34,1.09,4.84,1.52,7.37,1.81,1.79,.3,3.44,.48,4.56,.49,1.56,.18,3.13,.37,4.71,.53,2.62,.5,5.36,1.14,6.87,.89,2.43-.41,5.98-1.46,6.19,1.52,.21,2.98,.1,11.77,.2,14.3s-.3,5.38-2.74,6.39h-.02c-1.74,.28-3.51,.31-5.26,.05-2.64-.4-5.05-1.48-7.41-2.67-.42-.21-.83-.42-1.25-.63-2.66-1.44-5.51-2.64-6.55-3.14-1.72-.81-2.33-3.25-5.07-4.57-.02,0-.04-.01-.06-.02-.19-.11-.37-.23-.56-.33-.21-.11-.45-.14-.69-.15-1.74-.5-2.34,.16-1.43,.91l.12,.1c-.13,.57,.05,1.23,.61,1.51,.31,.16,.62,.33,.91,.53,.07,.05,.15,.1,.22,.15,.07,.05,.29,.24,0,0,.13,.11,.27,.22,.4,.34,.25,.22,.49,.46,.71,.72l.04,.04c-.05,.08-.13,.14-.28,.17-.49,.11-1.69,.28-3.23,.31-1.83-.04-3.62-.16-5.41-.51-1.27-.3-2.52-.75-3.63-1.42-2.18-1.32-4.01-2-5.28-2.55-.62-.47-1.23-.95-1.88-1.36-.03-.11-.05-.22-.05-.35,.03-.38,.17-.76,.42-1.12,.26-.22,.52-.45,.8-.65,.86-.64,1.8-1.17,2.78-1.6,.09-.03,.18-.06,.27-.08,1.22-.29,6.36-1.35,11.32-1.84,3.26-.07,6.67,.02,9.87,.78,4.04,1.86,8.23,4.03,8.13,2.88-.04-.44,.05-.82-.05-1.23,.07-.48-.08-1-.58-1.36-1.95-1.39-4.14-2.29-6.45-2.87-3.89-1.43-8.26-2.35-11.38-1.65-4.06,.91-7.61,1.52-10.25,.41-2.24-.95-8.35-2.49-11.95-7.47-.44-.66-.84-1.36-1.18-2.12-2.84-6.32-.7-13.92,4.96-17.89,1.44-1.01,.07-3.39-1.39-2.37-1.82,1.27-3.33,2.86-4.53,4.63-1.61,2.2-2.91,4.98-3.07,7.67-.05,.8-.03,1.63,.04,2.47,.04,1.96,.42,3.94,1.18,5.85,.23,.59,.5,1.15,.79,1.69,.9,1.96,2.07,3.74,3.47,5.1,3.59,3.49,9.88,4.51,8.58,5.43-.57,.3-1.14,.61-1.67,.98-1.17,.81-2.16,1.88-3.32,2.7-.49,.14-1.01,.2-1.56,.12-2.94-.41-9.33-3.14-10.85-6.8-.19-.47-.36-1.01-.51-1.6-.69-4.74-.71-9.58-.04-14.31,.1-.73-.18-1.47-.96-1.69-.26-.07-.58-.04-.86,.06-.16-.04-.32,.04-.47,.27-.19,.16-.32,.37-.36,.63-.49,3.48-.64,6.97-.47,10.44-.03,0-.05,.03-.09,.02-.55-.25-1.07-2.11-1.37-4.37-.08-1.84-.25-3.68-.2-5.53,.21-3.04,.96-4.67,2.12-5.95,.33-.27,.56-.57,.71-.91,.9-1.35,1.4-3.11,1.49-5.36,.1-2.74,3.55-5.78,5.99-8.32,2.43-2.54,4.87-6.7,4.87-8.83,0,0,.14-.35,.43-.89,1.4-2.24,3.14-4.26,5.12-6.02Zm42.93-19.67c3.65,2.23,4.7,5.74,6.39,4.57,.19-.13,.42-.29,.68-.48,.4-.01,.78-.21,1.01-.69h0c2.24-1.53,5.67-3.58,8.14-3.19,3.04,.47,5.01,.95,4.08,2.09-.18,.14-.36,.27-.52,.43-.62,.58-1.12,1.28-1.49,2.05-.27,.34-.57,.64-.96,.89-.6,.14-1.2,.29-1.78,.49-1.38,.46-2.73,1.08-3.96,1.85-.42,.26-.82,.57-1.23,.89-.73,.35-1.41,.68-1.95,.96-1.51,.79-2.69,.12-4.44-1.11-.95-.92-2-1.6-3.17-2.15-.1-.06-.2-.13-.31-.19-1.42-.85-3.1-1.36-4.68-1.81-.38-.17-.75-.34-1.12-.54-1.65-.89-3.14-1.99-4.5-3.26,1.34-.42,2.69-.83,4.03-1.23,1.87-.56,3.61-.4,5.22,.18,.18,.08,.37,.17,.54,.27Zm29.39,3.99c3.1,1.37,7.7,3.55,8.25,4.33,.71,1.01-1.22,2.13-2.43,3.65s-2.23,4.26-.51,5.78c1.72,1.52,5.88,1.93,7.91,4.87,2.01,2.91,5.11,6.92,2.6,7.98-.09,.02-.18,.04-.27,.07-.6,.17-1.18,.4-1.75,.66-2.59,.92-5.72,2.35-6.36,6.41-.07,.46-.12,.92-.15,1.37-.18,.87-.24,1.77-.2,2.68,.06,1.51,.35,3.02,.27,4.52-.12,1.06-.49,1.8-1.44,2.08-.17,.05-.38,.11-.61,.17-1.71,.42-3.43,.82-5.16,1.16-.18,.04-.36,.07-.54,.1-3.26,.61-6.57,1-9.89,1-3.19,0-6.27-.59-9.43-.94-.12-.01-.24-.02-.36-.03-.87-.6-1.42-1.61-1.49-3.39-.16-4.08-.31-9.41,1.22-12.73,.41-.66,.88-1.27,1.38-1.79,.32-.34,.67-.66,1.03-.97,3.65-2.6,11.13-6.61,14.33-6.42,2.45,.14,6.13,1.87,8.42,2.53h0c.44,.38,.95,.41,1.39,.25,.23,0,.42-.05,.54-.15,1.01-.91,1.42-2.23-1.32-3.25s-7.41-2.43-10.25-1.22c-.08,.03-.13,.05-.2,.07-.23,.02-.46,.03-.68,.06-.15-.53,2.93-3.54,3.41-6.12,.18-.95,.16-2.02,.02-3,.06-.46,.11-.93,.14-1.4,.05-.77-.45-1.2-1.04-1.3-.44-.61-.97-.68-1.45,.22-1.07,1.98-1.07,6.56-3.42,9.68h-.01c-.54,.73-1.21,1.37-2.05,1.88-4.37,2.68-10.98,5.07-11.81,6.79,0-.24,0-.47,0-.71l.15-2.53s-.81-11.46,.71-12.68c1.52-1.22,3.85-2.33,5.68-3.45,1.83-1.12,6.19-2.74,9.64-2.13,1.92,.34,4.51,1.37,6.52,2.01,.49,.28,.96,.58,1.42,.91,1.44,1.03,2.81-1.35,1.39-2.37-2.88-2.08-6.37-3.24-9.91-3.46-.54-.28-.74-.56-.34-.83,.92-.61,1.54-1.29,2.38-1.54,1.41,.42,2.85,.78,4.28,1.16Zm13.97,9.12c.74,.4,1.53,.75,2.4,.79,2.13,.1,5.28,1.93,5.99,3.45,.71,1.52,1.12,2.94,3.04,3.75,1.93,.81,4.57,3.04,6.09,4.46,1.25,1.17,1.68,3.49,3.37,4.91,.99,1.06,2.3,1.75,3.03,3.05,1.26,2.24,1.04,4.8,1.02,7.31,0,.16-.01,.31-.02,.46-.06,1.21,.04,2.12,.28,2.83,.01,.06,.02,.11,.03,.17,.75,3.24,5.34,2.27,6.51,5.21,.08,.21,.21,.37,.34,.51,.99,2.04,1.39,4.63,1.45,6.3,.1,2.58,0,3.46-1.02,5.67-.13-1.96-.49-3.92-1.13-5.82-.56-1.67-3.21-.95-2.65,.73,1.18,3.52,1.44,7.33,.71,10.96-.02,.08-.04,.15-.07,.23-1.01,3.65-3.25,5.48-5.38,7.71-2.13,2.23-5.68,3.25-7.41,3.35-.19,.01-.4-.03-.62-.11-1.47-1.14-2.96-2.27-4.53-3.27-.65-.51-1.26-.92-1.75-1.08-1.83-.61,.1-.91,2.03-1.72,1.93-.81,8.62-5.58,10.45-8.42,1.83-2.84,3.04-8.01,2.03-12.17-.71-2.92-2.42-5.88-4.53-7.63-.74-.7-1.55-1.35-2.45-1.91-.67-.42-1.31-.18-1.69,.3-.29,.05-.37,.23-.27,.53-.16,.54-.04,1.16,.58,1.55,.35,.22,.68,.45,1,.7,.87,1.06,2.04,2.42,3.41,4.14,.05,.07,.1,.14,.15,.21,1.06,2.13,1.52,4.53,1.28,6.91-.82,3.44-3.23,6.64-4.69,8.59-3.16,2.7-7.33,4.34-10.95,6.33l-.2,.07c-.58,.21-1.55,.3-2.71,.33-1.22-.22-2.46-.34-3.72-.37-3.25-.07-6.51,.44-9.68,1.15-3.22,.72-6.44,1.59-9.43,2.99-1.6,.75-.21,3.12,1.39,2.37,.07-.03,.15-.06,.22-.09,3.6,.1,12.54-3.29,17.64-3.54,2.94-.15,6.09,.84,8.57,2.03,1.42,.75,2.75,1.62,4.05,2.57,.34,.32,.55,.6,.57,.77,.08,.87-2.81,2.85-6.06,4.5-.61,.22-1.22,.43-1.84,.61-2.84,.84-5.78,1.31-8.73,1.53-.17,.01-.33,.01-.5,.02-.91-.11-1.71-.26-2.34-.37-.65-.12-.75-.37-.6-.72,.01,0,.01,0,.04-.03,.08-.06,.16-.12,.24-.17,.16-.11,.33-.22,.5-.33,.36-.22,.72-.42,1.1-.61,.65-.32,.87-1.29,.49-1.88-.25-.39-.63-.59-1.04-.63-1.16-1.2-4.07,1.65-5.61,3.87-.53,.77-1.31,1.35-2.21,1.85-.11,.04-.22,.09-.31,.16-1.8,.5-3.57,1.13-5.33,1.76-2.11,.76-4.27,1.53-6.45,2.08-2.2,.35-4.3,.53-5.38,.53-2.13,0-2.54-.81-3.45-2.03-.43-.57-.63-1.12-.69-1.71,0-.3,0-.6,0-.9,.03-.42,.1-.86,.19-1.35,.3-1.62,.2-3.45,0-5.58-.2-2.13-.1-8.72-.1-10.04s.81-.91,3.75-.2c2.94,.71,14.3-.61,21.2-1.62,6.9-1.01,11.26-5.38,12.27-7.2,.05-.1,.1-.19,.14-.28,.24-.4,.44-.81,.58-1.25,.54-1.69-2.11-2.41-2.65-.73-.2,.64-.64,1.17-1.17,1.64-.73,.53-1.62,1.13-2.57,1.76-1.05,.64-2.14,1.21-3.27,1.68-2.87,1.19-5.96,1.9-9.04,2.25-3.4,.38-6.83,.39-10.24,.28-1.52-.05-3.09-.05-4.65-.13-1.89-.3-3.46-.68-3.95-1.05-.45-.34-.63-1.74-.7-3.47,0-.86-.01-1.72-.02-2.58,.03-2.35,.15-4.67,.11-5.51-.1-1.83,1.12-2.33,3.14-1.22,2.03,1.12,15.42,0,20.19-.61,4.77-.61,7.91-3.55,15.32-2.54,.68,.09,1.28,.23,1.85,.38,1.08,.42,2.13,.94,3.14,1.5h.02c2.47,1.98,2.62,4.92,3.11,6.94,.07,.29,.15,.53,.24,.76,.03,.44,.25,.76,.55,.94,.27,.28,.57,.35,.85,.2,.65-.04,1.3-.48,1.33-1.32,.03-.79,.04-1.58,0-2.36,.11-1.44-.19-2.65-.83-3.72-.29-.62-.67-1.21-1.17-1.76-1.24-1.37-2.96-2.32-4.71-3.08h0c-1.15-.68-2.34-1.08-3.49-1.32-2.39-.66-4.74-.54-7.17-.04-.32-.09-.56-.52-.71-1.2,0-.92-.1-1.84-.17-2.76,.08-1.74,.43-3.76,1.1-5.44,1.52-3.85,5.29-4.52,10.35-4.77,.13,0,.25,0,.38,0,2.15,.38,4.22,1.27,6.15,2.44,2.23,1.64,4.18,3.72,5.74,4.96,2.4,1.9,3.04,1.18,3.25,.07,.23-.38,.28-.84,.03-1.27-.4-1.28-2.57-2.63-4.2-3.98-.49-.41-1.46-.99-2.63-1.61-2.48-1.59-5.15-2.82-7.96-3.31-.41-.1-.76-.15-1.03-.15-.38-.04-.75-.07-1.14-.08,0-.22-.03-.43-.05-.65,.55-2.67-2.71-7-5.05-10.02-2.43-3.14-5.78-2.43-6.7-4.26s2.74-3.45,2.74-3.45c.01,0,.02,0,.04,0,.8,.89,1.91,1.16,3.05,1.33Zm-39.7,36.5c-.97,.26-2.49,.54-4.14,.78-.93,.12-1.86,.23-2.78,.33-1.23,.12-2.4,.2-3.32,.21-1.81,.02-4.72-.12-7.53-1.01-1.02-.37-2.01-.82-2.99-1.31-.51-.3-.99-.64-1.45-1.02-3.65-3.04-7.2-2.74-6.8-3.96h0c.51-.97,.77-1.93,.82-2.87,.24-1.55,.09-3.38-1.43-4.84-.08-.08-.18-.16-.27-.24-1.67-2.32-4.35-4.25-6.99-5.41-.35-.44-.48-.83-.25-1.15,.16-.22,.36-.55,.59-.94,1.52-2.1,2.83-4.37,4.68-6.2,.24-.23,.49-.46,.74-.67,.19-.12,.39-.22,.59-.31,3.04-1.32,6.19-.81,5.99-3.85,0-.02,0-.03,0-.05,.15-1.11-.74-1.99-1.59-2.78-.36-.38-.74-.75-1.13-1.11-1.06-1.11-1.96-2.34-2.71-3.69l.02-.02c1-.8,7.12-5.6,13.54-7.68,0,0,.92,.81,1.83,1.6,.1,.08,.19,.17,.29,.25,.52,.45,.99,.85,1.24,1.06-4.41,.11-8.81,.86-12.22,3.93-.57,.52-.53,1.18-.18,1.66-.11,1.75,1.34,.78,3.64-.48,1.51-.7,3.97-1.72,6.63-2.3,2.53-.26,4.61-.34,6.35-.15,.58,.14,1.14,.34,1.66,.61,.18,.06,.36,.07,.55,.02,.01,0,.02,0,.03,0,.73,.26,1.48,.51,2.21,.82,.05,.03,.09,.05,.14,.08,.91,.6,1.76,1.1,2.5,1.6,.67,.63,1.29,1.32,2.01,1.88,.29,.46,.48,.98,.56,1.59,.3,2.43-.51,5.99-.3,7.71,.2,1.72,.47,3.4,.51,4.67,0,.28,.02,.66,.04,1.05,0,.07,0,.14,0,.21v1.33c-.01,.73-.1,1.19-.34,.75-.51-.91-4.46-4.67-7-5.58-.04-.01-.08-.03-.12-.05-2.87-1.67-6.25-3.45-8.34-5.93-.87-1.58-1.31-4.52-1.95-6.05-.15-1.34-1.65-1.53-1.89-.11-1.38,2.23,.25,5.42,2.15,8.08,.63,.89,2.03,1.91,3.71,3,1.38,1.09,2.85,2.06,4.25,2.93,2.48,1.53,5.01,3,6.79,5.37,.08,.11,.16,.22,.23,.32,1.65,2.77,2.51,5.72,2.56,8.57,0,.32,.02,.67,.04,1.03,0,.77,.01,1.53,.02,2.3,.01,1.47,.02,2.95,.03,4.42-.2,.82-.56,1.41-1.21,1.58Z"/><path class="g" d="M207.26,149.26c-1.38,2.04-3.01,3.91-4.83,5.57-.67,.61-1.38,1.21-1.75,2.03-.3,.67-.35,1.42-.49,2.14-.88,4.76-5.36,8.14-6.64,12.81-.13,.48-.26,1.02-.68,1.29-.31,.2-.7,.2-1.06,.16-2.46-.28-4.51-2.12-6.66-3.07-.02,2.98,3.28,6.79,4.37,9.97,1.16,3.39,2.17,7.46,5.47,8.86,1.98,.84,4.47,.34,5.97-1.2,1.5-1.55,1.93-4.04,1.02-6-1.84,.56-4.52,.69-5-1.18-.2-.79,.15-1.6,.48-2.34,4.22-9.33,7.51-19.07,9.8-29.05Z"/></g><g><path class="g" d="M120.61,155.51c-1.52,.13-3.04-.47-4.47-.35-.47,.04-.87,.33-1.24,.62-3.07,2.42-5.59,5.54-7.29,9.06-.58,1.2-1.1,2.48-2.08,3.38s-2.61,1.28-3.63,.43c-1.17,4.96-1.88,10.04-2.11,15.13,.88-4.12,2.84-8,5.62-11.16,.16,1.35,2.2,1.65,3.25,.79,1.05-.87,1.4-2.3,1.86-3.58,.73-2.01,1.88-3.87,3.36-5.42,.54-.56,1.16-1.1,1.91-1.31,.66-.18,1.36-.09,2.04,0,2.04,.29,4.09,.57,6.13,.86,.82-1.87,2.22-7.01,.7-9.37,.18-.8-.08-1.53-2.11-3.12-.83-.65-1.56-1.29-2.25-1.86,.91-.09,1.78-.27,2.57-.56,5.49-2.06,2.51-6.86,.91-8.91-1.6-2.06-1.34,3.44-4.11,4.8-2.78,1.36-2.74-.23-2.06-2.29s-1.37-.91-7.54-2.29c-6.17-1.37-17.14-9.6-23.08-11.2s-9.6,2.06-13.94,.91c-4.34-1.14-8.23-.23-8.23-.23l.06,.03c.03,.11-.32,.54,0,.54,.75,4.73,.14,8.19,1.69,11.35,1.16,2.36,3.32,3.99,5.16,5.87,2.45,2.51,4.04,5.75,6.34,8.4,.66,.76,1.42,1.5,2.37,1.85,.8,.3,1.67,.3,2.51,.39,1.79,.19,3.52,.81,5.04,1.77-1.69-2.38-3.78-4.47-6.17-6.14-1.37-.96-2.85-1.79-4.09-2.92-3.75-3.39-4.77-9.43-2.34-13.86,.31-.57,.68-1.14,1-1.71,1.33,2.69,4.12,7.04,9.22,9.77,6.5,3.48,15.67,2.37,19.29,.32,2.63,1.51,5.95,2.87,9.22,3.61-3.31,2.43-10.52,7.81-12.71,7.94-2.32,.14-1.36-.96-.82-2.46,.55-1.5,.96-4.23-1.09-2.05-2.05,2.18-7.1,10.78-7.91,15.28-.39,2.14-.57,3.94-.88,5.66-1.85,1.39-3.71,2.79-5.56,4.18-.73,.55-1.52,1.12-2.43,1.14-1.01,.03-1.91-.64-2.59-1.39-3.67-4.08-2.75-10.59-5.52-15.33-1.15-1.96-2.87-3.51-4.41-5.17-2.82-3.04-5.11-6.53-7.1-10.16-1.17-2.13-7.45-19.6-8.26-19.59-3.94,.07,2.54,17.51,3.62,19.35,1.88,3.19,4.3,6.06,6.01,9.34,3.24,6.22,3.79,13.63,7.43,19.62,.91,1.5,2.01,2.91,2.55,4.57s.36,3.73-.99,4.85c-.82,.69-1.93,.91-2.91,1.36-3.01,1.38-4.42,5.31-3.3,8.37-.27,3.1-.17,6.43-1.7,7.32-.59,.36-1.34,.19-2.01,.05-2.6-.54-5.32-.49-7.91,.12-3.03-2.74-6.66-6.75-7.86-12.19-1.77-8.05-4.23-17.06-3.41-22.93s2.18-13.24,4.09-18.15c1.91-4.91,3.96-14.6,2.59-20.47-1.36-5.87-2.46-12.69-.82-16.92s3.55-9.55,2.87-13.24-4.37-6.82-5.05-10.1c-.68-3.28,.14-6.82,1.91-10.23s4.09-5.46,3.68-9.55c-.41-4.09,.41-6.14,.41-6.14,0,0,.82,3.41,.96,5.87,.14,2.46,0,6-.96,8.32s.41,4.09,.41,4.09c0,0,5.32-7.51,4.78-11.19-.55-3.68-1.91-6-1.09-10.92,.82-4.91,5.73-10.92,3.68-10.64-2.05,.27-3.14,1.09-4.37,4.09-1.23,3-4.5,8.6-3.41,4.5,1.09-4.09,6.41-12.28,9.14-17.6s8.87-12.28,11.46-14.33,3-3.28,2.18,1.09-1.77,8.6-1.5,13.1c.09,1.55,.14,2.84,.25,3.81-.17,.97-.2,2.01-.51,3.09-.18,.61-.51,1.31-1.14,1.41-.63,.1-1.17-.49-1.44-1.07-.64-1.37-.55-2.95-.44-4.46,.11-1.51,.22-3.08-.38-4.47-.6-1.38-2.17-2.48-3.61-2,1.36,1.58,1.28,3.95,.65,5.93s-1.72,3.81-2.19,5.83c-.73,3.13,.11,6.51,1.86,9.21,.24,.37,.51,.75,.9,.96,1.02,.57,2.27-.19,3.1-1.01,2.92-2.86,6.18-8.38,5.65-12.33-.03-1.03-.28-12.62,1.8-17.32,2.18-4.91,2.87-12.01-3.55-6.82-6.41,5.19-18.7,15.28-21.97,26.88-3.28,11.6-4.91,14.19-4.91,20.33s-1.5,7.23-3.55,12.42-3.55,4.64-1.09,10.64,5.32,8.32,5.32,8.32c0,0-4.23,11.87-4.23,20.47s3.55,15.83,1.91,22.24-6.96,19.92-6.96,27.29,1.5,9.69,2.46,16.65,.27,10.37,4.64,14.87c4.37,4.5,18.97,16.92,20.74,22.92,.07,.77,.18,1.58,.32,2.41,.24,4.57-.44,12.59,2.59,18.98,.28,.95,.88,1.79,1.49,2.58,.66,.87,1.33,1.74,1.99,2.61,1.1,1.45,2.26,2.95,3.87,3.8,3.04,1.61,6.81,.51,9.82-1.14,3.2-1.75,6.08-4.1,8.44-6.89,.95-1.13,1.87-2.46,1.77-3.94-.01-.21-.05-.43-.2-.58-.35-.35-.94-.02-1.32,.3-1.01,.85-2.06,1.67-3.29,2.14-1.56,.6-3.16,.44-4.8-.08-2.6-2.08-5.17-5.76-6.9-11.33-3.33-10.67-4.37-20.88-1.5-27.84s5.19-9.96,5.19-8.46-.14,7.78-.55,11.87c-.41,4.09-.97,5.92,.41,9.83,1.38,3.9,2.73,6.96,2.59,3.96-.14-3,1.23-16.1,1.64-21.56,.41-5.46,.96-8.46,.96-12.55s1.77-11.05,3.96-17.88c2.18-6.82,8.32-9.69,12.01-11.46s9.14-6,11.6-4.5c.93,.57,1.87,1.44,2.71,2.22-.28,.31-.57,.56-.85,.59Zm-26.54-9.65c-5.27-1.21-3.62-6.36-3.62-6.36l3.07,.77s-1.43,1.54,1.32,2.52c2.74,.99,3.73,.11,4.06-.88l1.86,.99s-1.43,4.17-6.69,2.96Z"/><path class="g" d="M227.38,165.12c-.41-7.64-2.05-14.06-5.05-22.93-3-8.87-.41-14.19-.55-22.38-.14-8.19,1.5-18.83-3.82-26.61,0,0,4.09-12.28,2.18-19.92-1.91-7.64-9.96-22.52-13.24-30.16-3.28-7.64-9.01-20.88-8.87-25.38s-2.05-6.55-4.37-1.91c-2.32,4.64-3,6-1.91,12.83,1.09,6.82,3.41,9.14,1.91,12.83s3,6.82,3.96,7.64,.96-3.14,.68-5.87c-.27-2.73,1.23-4.91,2.59-2.46,1.36,2.46,5.19,7.51,4.64,12.15-.55,4.64-1.77,6.82-.14,9.69,1.64,2.87,7.91,5.32,8.46,8.73,.55,3.41-5.05,.27-3.55,2.46,1.5,2.18,6.28,6.82,5.73,9.83-.55,3-2.59,8.87-.96,12.01,1.64,3.14,2.59,4.09,3,10.37,.41,6.28,.82,13.1-1.36,20.2-2.18,7.1-2.46,10.1-.82,13.37,1.64,3.28,7.64,15.56,8.19,20.33,.55,4.78,.82,17.06,.41,21.83-.41,4.78-1.64,12.01-6.55,16.24-4.91,4.23-13.37,12.28-15.15,15.56,0,0-2.46-8.32,.82-13.51,3.28-5.19,8.19-9.83,9.42-14.6,1.23-4.78,.96-17.19,.82-19.92-.14-2.73-1.77-5.87-2.18-3.55-.41,2.32-1.36,11.46-1.23,14.87s-.82,9.55-5.05,14.06c-3.09,3.29-5.16,4.98-6.05,7.14-1.61-2.5-5.2-3.47-7.53-5.14-2.67-1.91-4.21-4.97-6.03-7.7-1.57-2.36-3.68-4.66-6.33-5.44-.33-1.75-.71-3.73-1.5-6.2-2.05-6.41-4.37-15.97-13.1-20.74-3.2-1.75-5.57-2.85-7.46-3.43,3.93-.66,8.07-2.33,11.14-4.18,3.22,2.24,12.97,3.63,19.78-.02,5.6-3,7.44-8,8.05-10.59,1.6,1.18,2.82,2.87,3.41,4.77-1.91,1.19-3.34,3.12-3.92,5.3-.43,1.63-.39,3.35-.75,5-.35,1.65-1.24,3.35-2.82,3.95,2.27,.2,4.82,.31,6.55-1.18,2.43-2.1,1.87-6.1,3.67-8.76,.67-.98,1.62-1.73,2.52-2.51,1.08-.94,2.1-1.96,3.04-3.04,.73-.84,.11-7.19,.02-8.29,0,0-3.89-.91-8.23,.23-4.34,1.14-8-2.51-13.94-.91s-16.91,9.83-23.08,11.2c-6.17,1.37-8.23,.23-7.54,2.29,.69,2.06,.72,3.64-2.06,2.29-2.78-1.36-2.51-6.86-4.11-4.8-1.6,2.06-4.57,6.86,.91,8.91,.55,.21,1.15,.35,1.77,.45-.56,.26-1.11,.6-1.69,1.01-3.41,2.46-7.1,5.46-3.96,5.87,3.14,.41,3-4.91,7.51-4.09s5.87,.68,5.6,3c-.27,2.32-.14,2.32-1.64,3.41-1.5,1.09-3.96,1.36-2.32,2.59,1.64,1.23,1.5,2.59,3.96,1.36,2.46-1.23,1.23-4.37,5.32-3.55s5.87,3.82,8.32,10.51c2.46,6.69,5.46,19.38,6.41,28.25,.73,6.77,.03,19.41-.71,26.48,.69,1.55,1.31,3.17,1.91,4.73,.85-2.8,1.48-6.26,1.8-9.79,.68-7.51-1.77-21.97,.14-20.47,1.91,1.5,3.28,6,4.09,10.37s1.36,14.47-1.5,20.2c-1.1,2.2-1.82,3.58-2.33,4.68,.35,.65,.74,1.28,1.14,1.89-.47-.18-.96-.28-1.47-.22-.33,.04-.67,.15-.88,.42-.22,.28-.23,.67-.21,1.02,.28,3.69,3.69,6.25,6.79,8.28,.84,.56,1.7,1.12,2.66,1.45,3.31,1.15,7.37-1.18,8.04-4.61,.09-.46,.11-.94,.11-1.41,.11-.01,.21-.04,.32-.04,.76-4.63,1.15-10.18,1.12-16.79,0,0,4.91-9.55,11.74-15.15,6.82-5.6,11.74-9.69,13.78-14.74,2.05-5.05,1.91-21.43,1.5-29.07Zm-52.32-23.21c.33,.99,1.32,1.86,4.06,.88,2.74-.99,1.32-2.52,1.32-2.52l3.07-.77s1.65,5.16-3.62,6.36c-5.27,1.21-6.69-2.96-6.69-2.96l1.86-.99Zm16.7,96.9s0,.01,.01,.02c-.42,.4-.92,.71-1.47,.89l.71,.04c-.41,.13-.82,.15-1.22,.09-.82,.17-1.69,.1-2.44-.29l1.74,.1c-.89-.34-1.73-1-2.44-1.67-.16-.16-.33-.31-.51-.47,0-.07,.01-.14,.02-.21,.55-4.78,3.68-12.28,3.68-12.28,0,0,1.77,4.09,2.05,7.51s-.82,5.05-.14,6.28Z"/><path class="g" d="M160.65,194.32c-.75-2.87-.55-19.79-7.91-22.52-7.37-2.73-7.91,.14-13.78,1.77-5.87,1.64-5.87-4.09-10.23-3.82-4.37,.27-10.1,1.23-11.33,7.23-1.23,6-.14,13.65-.96,16.1-.28,.85-.81,1.39-1.28,1.89-.5,.15-1.09,.07-1.57-.18-.68-.35-1.2-.92-1.81-1.37-2.22-1.64-5.61-1.43-7.6,.48-1.99,1.91-2.36,5.28-.82,7.57,.19,.28,.46,.57,.8,.52,.24-.03,.41-.24,.57-.42,.9-1.11,1.79-2.22,2.69-3.33,.2-.24,.41-.5,.71-.59,.34-.11,.71,0,1.04,.15,3.18,1.35,5.28,4.45,8.28,6.19,.27,.16,.57,.3,.87,.27,.47-.06,.79-.55,.83-1.02h0c.44,.37,.67,.73,.58,1.33-.27,1.77-2.73,1.91-2.05,5.05,.68,3.14,2.59,2.32,3,3.96,.32,1.27-.61,.11-.46,1.3,6.74-.41,13.43-2.48,20.22-3.03,1.49-.12,3.02-.16,4.43,.33,1.96,.69,3.44,2.32,5.28,3.28,1.17,.61,2.4,.91,3.67,1.03-.12-.1-.24-.2-.4-.32-1.64-1.23-1.77-2.18,.82-3.41,2.59-1.23,2.87-2.18,2.46-4.09-.41-1.91-.82-4.5,.55-5.19,1.36-.68,11.05-6.14,8.6-9.69-2.46-3.55-4.44,3.42-5.19,.55Zm-4.99,.14c-.67,3.77-2.66,6.1-3.66,6.54-1,.44-3.66-.44-2.44-2.44,1.22-2,1.22-5.21-.55-6.76-1.77-1.55-3.66-1.33-5.99,2.11-2.33,3.44-.55,9.64,1,11.31,1.55,1.66,6.54-1.11,8.31-1.55,1.77-.44,.22,2.55-2.44,3.99s-9.31,.33-10.42-1.66,.11-7.32,1-10.75c.89-3.44-.89-2.66-2.11-2.55-1.22,.11-1,7.87-1.66,10.53s-3.66,4.1-8.09,3.66c-4.43-.44-6.65-3.55-6.65-4.43s3.44-.11,5.76,.89c2.33,1,4.88,.22,6.43-1.66,1.55-1.88-.33-2.11,.44-6.1,.78-3.99-3.55-6.21-6.98-5.43-3.44,.78-.11,6.1-.22,7.21s-2.55,1.33-4.99,.55c-2.44-.78-.89-2.11-.55-4.21s-.78-5.65-1.55-7.54c-.78-1.88,0-5.21,1.22-6.76,1.22-1.55,7.21-2.11,9.31-1.88,2.11,.22,4.66,1.67,6.43,1.88,2.77,.33,12.08-.89,16.07,1.55,3.99,2.44,2.99,9.75,2.33,13.52Z"/><path class="g" d="M189.79,239.85c.17-.03,.34-.07,.51-.13l-1.21-.07c.23,.09,.47,.16,.7,.19Z"/></g></g><g id="b"><g><g><g><path class="g" d="M159.88,232.41c.41-1.57,.45-4.82,.45-4.82,1.71,3.4,0,7.75,0,7.75,0,0,.8-1.31,1.64-3.26,.85-1.95,3.06-11.06,3.06-11.06,.05,.43,.05,3.49,.05,3.49l1.24-5.56c.88,2.94-.44,12.01-.44,12.01l.42-1.15c.22,2.38-1.48,9.61-1.48,9.61,0,0-.52,.35-1.09,.39-.57,.04-3.01-2.28-3.92-2.67s-.78-1.26-.78-1.26c0,0,.45-1.9,.85-3.46Z"/><path class="g" d="M168.93,229.26s.2,.54,.31,.94c-.02-.64-.04-1.6-.07-1.77l-.04-.26s1.24,.69,1.32,.79c.08,.09,.09,.4,.09,.4,0,0,.91,3.14,.26,4.12-.65,.98-1.21,1.46-1.21,1.46,0,0,.81-.73,.95-.9l.14-.17s-.89,1.58-2.02,1.93c0,0-1.19,.3-1.22,.3s1.27-5.85,1.33-6.22c.06-.37,.16-.63,.16-.63Z"/></g><g><path class="g" d="M167.91,215.12s.32,12.86-1.62,19.65c0,0,3.19-9.61,1.62-19.65Z"/><path class="g" d="M171.21,233.48c-.06,.26,.52-1.94,.38-2.32-.14-.38-.24-.12-.24,.15s.13,1-.14,2.17Z"/></g><g><path class="g" d="M109.51,232.41c-.41-1.57-.45-4.82-.45-4.82-1.71,3.4,0,7.75,0,7.75,0,0-.8-1.31-1.64-3.26-.85-1.95-3.06-11.06-3.06-11.06-.05,.43-.05,3.49-.05,3.49l-1.24-5.56c-.88,2.94,.44,12.01,.44,12.01l-.42-1.15c-.22,2.38,1.48,9.61,1.48,9.61,0,0,.52,.35,1.09,.39,.57,.04,3.01-2.28,3.92-2.67s.78-1.26,.78-1.26c0,0-.45-1.9-.85-3.46Z"/><path class="g" d="M122.66,231.65c-.13-.49-.37-1.31-.37-1.31,0,0,.08,.63,.37,1.31Z"/></g><g><path class="g" d="M101.48,215.12s-.32,12.86,1.62,19.65c0,0-3.19-9.61-1.62-19.65Z"/><path class="g" d="M105.64,223l.02,.1c.18,.75,1.38,5.58,1.9,6.59,0,0-.17-1.76,.45-2.16,0,0-1.74-3.73-1.72-3.66,.02,.08,.67,1.9,.67,1.9l-1.53-3.61"/></g></g><g><g><path class="f" d="M168.72,221.39c5.14,4.31,5.58,4.75,10.72,10.49h0c-7.25-1.16-1.89-.64-11.59-1.12"/><path class="f" d="M173.03,223.32l-3.14-1.84c5.27,4.04,7.19,5.58,12.43,11.03,4.93,1.42,9.19,2.65,15.58,6.64-8.29-5.28-16.47-10.71-24.86-15.83h0Z"/></g><g><path class="f" d="M173.03,223.32c6.23,3.97,14.55,9.26,20.78,13.23,1.22,.78,2.86,1.82,4.08,2.6,3.11,2.16,6.32,4.4,10.14,8.46-5.3-1.6-7.71-2.33-16.64-3.74-4.52-7.75-8.73-14.19-18.36-20.55h0Z"/><path class="f" d="M225.37,281.73c-2.66-9.49-6.25-20.54-15.18-31.64-6.22-1.51-8.6-2.04-17.22-3.11,3.58,8.02,7.56,18.08,9.54,35.9,11.04-.63,14.29-.81,22.86-1.15h0Z"/></g></g><g><g><path class="f" d="M104.29,239.27c-6.15-2.68-6.7-2.98-13.24-7.03h0c7.28-.94,1.99,.08,11.44-2.2"/><path class="f" d="M99.62,238.64l3.53,.87c-6.2-2.39-8.47-3.32-15.04-7.07-5.13,.03-9.57,.06-16.82-1.96,9.44,2.72,18.83,5.62,28.32,8.16h0Z"/></g><g><path class="f" d="M99.62,238.64c-7.1-2.05-16.57-4.77-23.68-6.82-1.39-.4-3.25-.94-4.65-1.34-3.59-1.2-7.3-2.43-12.12-5.25,5.53,.04,8.06,.05,17.02-1.11,6.52,6.16,12.39,11.14,23.42,14.52h0Z"/><path class="f" d="M32.9,197.41c5.24,8.35,11.8,17.94,23.51,26.06,6.39-.31,8.83-.47,17.4-1.89-5.7-6.68-12.36-15.2-19.3-31.74-10.41,3.73-13.47,4.82-21.6,7.57h0Z"/></g></g><path class="f" d="M168.72,221.39s-.43,7.33-.88,9.37"/></g></g><g id="c"><path class="j" d="M164.97,233.55v-.1c-.08,.33-.05,.23,0,.1Z"/><path class="g" d="M109.55,236.69c-.12,0-.27,.11-.19,.19-.34,.11-.59-.32-.7-.66l-.88-2.92c-.41-1.37-.8-2.93-.06-4.14,.07-.11,.16-.23,.28-.28,.31-.13,.61,.17,.81,.44,.93,1.22,1.97,2.34,3.12,3.36,.88,.78,3.16,1.77,3.67,2.76,.64,1.27-1.1,2.25-2.22,2.33-1.39,.1-2.46-1.1-3.84-1.07Z"/><path class="g" d="M103.9,239.85c.64,.41,1.64-.22,1.55-.97,0-.08-.03-.16-.08-.22-.17-.21-.52-.03-.7,.17s-.43,.45-.68,.34c-.06,.13-.12,.28-.08,.42s.24,.24,.34,.13"/><path class="g" d="M110.53,238.1c1.02,.37,2.16,.22,3.2-.11,1-.33,2-.88,2.5-1.81-1.76-.27-3.5-.59-5.24-.96-2.8-.59-2.67,2.08-.45,2.88Z"/><path class="g" d="M160.56,236.08c.2,.32,.03,.76-.26,.99s-.68,.3-1.05,.35c-.98,.14-2.05,.21-2.91-.3-.13-.08-.25-.17-.31-.31-.09-.21,.01-.45,.16-.62,.6-.68,1.73-.42,2.56-.78,.35-.15,.65-.4,1-.54s.83-.11,1.03,.21c.32,.5-.26,1.1-.31,1.69"/><path class="g" d="M213.91,250.52c-4.11-3.6-4.54-3.98-7.97-6.23-.47-.3-.96-.61-1.47-.93-.17-.11-.35-.22-.53-.33-.39-.25-.77-.49-1.17-.75l-1.72-1.09h-.02c-1.07-.69-2.14-1.37-3.16-2.02h0c-4.17-2.66-8.31-5.35-12.47-8.03,1.71-2.19,3.54-3.75,3.57-3.77-.13,.11-2.2,1.41-4.12,3.42-3.92-2.52-7.85-5.02-11.83-7.45h0c.55,.36,1.08,.73,1.6,1.09,3.55,2.26,6.88,4.37,10.16,6.44-.44,.47-.87,.97-1.27,1.51-2.38-2.73-5.21-5.35-8.88-7.95-.55-.35-1.11-.71-1.67-1.06,.05,.03,.06,.05,.09,.07t-.1-.04c-1.04-.57-1.58-.87-1.91-1.05,.38,.29,.76,.6,1.14,.92-.42-.33-.86-.67-1.33-1.03,.05,.03,.12,.07,.19,.11-.37-.29-.75-.56-1.12-.83l1.58,.92c.49,.31,.98,.62,1.46,.93-.08-.06-.26-.18-.74-.51l.82,.48c-.67-.43-1.34-.85-2-1.27-.1-.07-.19-.12-.3-.19-.68-.43-1.35-.86-2.01-1.28,0,.01,0,.03,0,.04l-.03-.02s-.03-.02-.04-.02c-.02-2.19-.14-4.01-.21-5.25-.08-.6-.17-1.21-.28-1.82-.01-.01-.04-.03-.06-.02-.07,0-.43,.08-1.11,1.42-.89,1.74-2.42,4.67-4.3,7.9-.27-.81-1.23-1.26-2.08-1.57-4-1.43-8.38,.38-12.53-.5-.48-.1-.96-.18-1.44-.26-.16-.23-.41-.43-.66-.55-.52-.25-1.13-.38-1.48-.83-.51-.67-.12-1.68,.52-2.22,.64-.54,1.48-.79,2.19-1.24s1.35-1.23,1.17-2.05c-.06-.26-.19-.49-.33-.71-1.12-1.71-3.07-2.74-5.08-3.14s-4.08-.22-6.1,.05c-2.29,.31-4.58,.73-6.79,1.42-.48,.15-3.01,.74-3.04,1.3-.04,.75,2.32,1.26,2.83,1.33,.78,.1,1.63,.07,2.25,.54,.62,.47,.62,1.72-.15,1.84,.64,.24,1.37,.58,1.49,1.25,.13,.68-.48,1.29-1.12,1.58-.63,.29-1.35,.42-1.89,.86-.11,.09-.2,.21-.28,.34-1.38,.2-2.76,.44-4.13,.75-2.5,.56-4.97-2.04-7.53-2.05-.89,0-1.79-.1-2.67,.02-1.33,.19-2.54,.88-3.72,1.53-1.54,.85-3.53,2.26-5.4,2.91-2-3.42-3.63-6.53-4.56-8.36-.34-.67-.59-.99-.74-1.14-.33,1.91-.51,3.79-.57,5.63,0,1.59,.07,3.44,.23,5.42-5.43,2.17-9.94,3.25-13.36,3.91-1.89-1.96-3.96-4.3-6.27-7.13-4.37-5.64-12.51-16.14-19.73-36.54l-2.02,.73,.46,1.24q0,.66-3.23,1.83-.6-.06-1.21-1.63c-9.58,3.47-17.15,6.2-25.44,9.03l.65,1.09c.03,.12,.07,.28,.1,.4-.78,.31-1.83,.72-2.61,1.03-.58-.13-1.06-.93-1.4-1.42l-1.6,.53c4.15,6.06,12.78,18.67,27.3,26.12,4.96,2.29,5.48,2.53,9.4,3.72h0c.53,.15,1.09,.31,1.67,.48,.2,.06,.4,.11,.6,.17,.42,.12,.85,.24,1.28,.37l2.01,.58h.02c1.22,.36,2.43,.71,3.59,1.04h0c8.77,2.53,17.5,5.2,26.31,7.6-.42,1.19-.44,2.56-.04,3.61,.82,2.17,2.96,3.66,5.22,4.2,2.26,.54,4.64,.27,6.91-.22,4.69-1,9.15-2.88,13.76-4.19,4.61-1.32,9.56-2.07,14.19-.78,3.18,.89,6.03,2.68,9.14,3.78,5.74,2.02,12.32,1.49,17.65-1.43,.81-.44,1.64-1,1.96-1.87,.28-.78-.12-1.81-.86-2.02,.16-.41,.49-1.3,.89-2.59,.04-.13,.08-.26,.12-.39,6.4-.71,11.41-.44,15.12-.08l.02,.04c-.02,.1-.04,.2-.06,.31-.41,1.18-.78,2.78-.94,4.9-.44,5.86-2.62,11.43-9.39,12.38l-13.15-1.68s-6.88,.22-11.92-1.96c-5.04-2.19-7.49-2.24-7.49-2.24,0,0-.98-.11-4.02-.11s-4.02,.11-4.02,.11c0,0-2.46,.06-7.49,2.24-5.04,2.18-11.92,1.96-11.92,1.96l-13.15,1.68-9.95-5.59,.49,1.29c1.41,3.24,4.15,5.96,9.55,6.76,.44,.14,.96,.31,1.59,.52l6.03,1.84c.63,.22,1.57,.4,2.73,.54l8.46,1.5c6.24,.99,17.62,1.14,17.62,1.14h.11s11.38-.15,17.62-1.14l8.46-1.5c1.16-.15,2.1-.33,2.73-.54l6.03-1.84c.63-.21,1.16-.38,1.59-.52,5.41-.8,8.14-3.52,9.55-6.76l.49-1.29c.89-2.74,1.02-5.72,1.13-8.19,.04-.81,.07-1.54,.13-2.2,1,2.03,2.05,4.34,3.16,6.96,2.6,6.65,7.44,19.02,8.6,40.63l2.15-.13-.09-1.32q.18-.64,3.62-.84,.56,.23,.7,1.9c10.17-.62,18.2-1.11,26.95-1.47l-.32-1.23c0-.12,.01-.29,.02-.41,.84-.08,1.96-.18,2.8-.25,.52,.29,.75,1.19,.94,1.76l1.69-.05c-2.27-6.99-6.99-21.52-18.8-32.77Zm-112.19-20.28c.04,.23,.07,.46,.11,.69,.89,4.52,2.09,7.65,2.34,8.29-.85-.37-1.62-.72-2.34-1.05,.4-1.6,.97-3.06-1.52-2.64-.75,.12-1.35,.5-1.82,1.02-2.15-1.12-4.11-2.28-6.89-3.97-.13-.12-.26-.24-.4-.36,3.86-.42,7.32-1.11,10.52-1.98Zm-3.97,7.47c-.74-.14-.87-.18-1.18-.32q-2.07-.94-2.08-1t.13,0c.52,.06,.92,.11,1.25,.15,.67,.31,1.34,.6,2.03,.89-.05,.09-.09,.19-.14,.29Zm3.91,1.28s.11,.02,.15,.03c-.05-.02-.1-.04-.15-.06v-.02c.12,.05,.23,.09,.36,.14-.06-.02-.13-.03-.21-.05,.44,.17,.88,.33,1.31,.48l-1.48-.36c0-.05,0-.1,.02-.15Zm-.44-12.58c.02,.24,.05,.48,.08,.72-.1-.09-.21-.18-.33-.28-.16-.15-.2-.22,.25-.43Zm-5.47,1.77c.66-.29,1.37-.42,2.06-.62q.47-.13,2.47,1.53c.16,.15,.09,.29-.17,.37l-1.97,.53q-.48,.11-2.47-1.47c-.21-.19,.03-.31,.08-.33Zm-5.35,1.27c.68-.23,1.39-.3,2.08-.45q.47-.09,2.46,1.42c.12,.1,.15,.24-.17,.31l-1.99,.36q-.49,.07-2.47-1.36c-.21-.17,.06-.27,.09-.28Zm-.84,4.09s.05,0,.07,0h.42c1.16,.66,2.19,1.21,3.14,1.7-1.22-.1-1.3-.14-1.66-.34q-2.19-1.31-1.96-1.36Zm-2.46-3.55c.24-.03,.36-.04,.66,.12,.02,.02,.05,.04,.07,.06l1.63,1.35s-.04,.01-.07,.02h0l-1,.1-1,.08c-.45,.02-.51,.01-2.06-.97-.23-.18-.38-.3-.5-.4,.02-.04,.06-.06,.13-.08q.05-.02,1.13-.14l1.01-.13Zm-3.79-4.1l1.66,1.65c.21,.22,.21,.38,0,.42q-2.67,.26-3.09-.1-2.09-1.93-1.7-2,2.74-.37,3.14,.02Zm.7,5.95l-2.01-.02q-.49-.02-2.5-1.11s-.04-.02-.05-.03q-.14-.12,2.24-.19,.48-.01,2.49,1.18s.04,.02,.05,.03c.03,.03,.11,.13-.23,.14Zm-4.99-10.74l.77,.92,.79,.91c.2,.25,.18,.44-.04,.49-.73,.12-1.69,.38-2.43,.39-.19,0-.48-.09-.74-.34l-.81-.88q-.85-.95-.89-1.01c-.04-.07-.14-.3,.13-.37,.74-.14,1.73-.45,2.48-.48,.26,0,.53,.13,.74,.36Zm-4.02-5.26l1.46,2.01c.19,.27,.16,.49-.08,.56-.76,.17-1.75,.5-2.53,.55-.19,.01-.49-.08-.73-.36q-1.85-2.37-1.43-2.5c.77-.19,1.78-.57,2.58-.63,.26-.02,.53,.12,.73,.38Zm-3.74-5.67l1.36,2.15c.17,.29,.12,.53-.12,.62-.79,.21-1.81,.61-2.62,.69-.2,.02-.5-.07-.72-.38q-1.72-2.55-1.28-2.7c.8-.23,1.84-.67,2.67-.76,.27-.03,.54,.11,.72,.38Zm-3.45-6.01l1.25,2.27c.16,.31,.09,.56-.17,.66-.81,.24-1.87,.71-2.71,.81-.21,.03-.5-.06-.71-.38q-1.59-2.72-1.13-2.89c.83-.26,1.9-.76,2.77-.87,.27-.04,.54,.11,.71,.4Zm-3.16-6.31l1.14,2.37c.14,.32,.06,.6-.21,.7-.84,.28-1.93,.79-2.81,.92-.27,.04-.53-.11-.7-.39q-1.45-2.85-.98-3.04c.86-.29,1.97-.83,2.86-.97,.28-.04,.54,.11,.7,.41Zm-6.49-5.9c.89-.31,2.03-.89,2.95-1.05,.28-.05,.54,.11,.68,.41l1.03,2.45c.13,.34,.03,.63-.25,.74-.87,.3-1.99,.85-2.9,1.01-.22,.04-.51-.05-.69-.41q-1.31-2.95-.82-3.16Zm-26.64,12.08q-1.79-2.46-1.4-2.61c.72-.22,1.66-.66,2.41-.75,.24-.03,.5,.11,.69,.38l1.41,2.07c.19,.28,.16,.51-.06,.59-.71,.2-1.62,.6-2.35,.68-.18,.02-.46-.07-.7-.36Zm4.84,5.47c-.18,.01-.45-.07-.7-.34q-1.93-2.28-1.55-2.4c.69-.19,1.59-.56,2.31-.62,.23-.02,.5,.11,.7,.36l1.53,1.93h0c.2,.26,.19,.46-.02,.53-.68,.16-1.56,.5-2.25,.54Zm3.73,4.35q-2.06-2.07-1.7-2.17,2.19-.48,2.25-.48s.33-.01,.67,.35l1.63,1.76c.21,.24,.22,.42,.02,.47-.65,.12-1.5,.38-2.15,.39-.17,0-.45-.08-.71-.32Zm4.71,4.2q-2.18-1.84-1.84-1.91,2.41-.37,2.82,0l1.74,1.58c.28,.26,.21,.38,.07,.4q-2.34,.27-2.78-.08Zm7.71,3.89s-.02,0-.03,0q-2.24,.06-2.7-.23-2.28-1.57-2.01-1.63s.02,0,.03,0q2.3-.18,2.74,.15l1.84,1.38c.3,.23,.23,.31,.14,.33Zm-19.61-24.54c6.8-2.31,9.62-3.27,21.6-7.57,4.13,9.49,9.36,20.55,19.3,31.74-7.58,1.21-10.31,1.61-17.4,1.89-6.74-4.94-14.67-11.43-23.51-26.06Zm24.67,27.73q-2.17-.18-2.65-.42l-.97-.51q-1.19-.66-1.18-.75s.03-.03,.1-.03q2.22,.05,2.67,.32l.94,.58,.96,.56c.23,.14,.23,.18,.23,.21-.03,.02-.03,.02-.1,.02Zm5.29,2.53s-.06,0-.09,0q-2.11-.4-2.6-.59-2.18-.89-2.2-.95s.04,0,.09,0q2.16,.28,2.62,.5l1.94,.9h0c.16,.07,.19,.09,.23,.12v.02Zm1.59,.84l1.05,.29c.4,.11,.43,.12,1.94,.57-.98-.28-1.98-.57-2.99-.86Zm2.41,.41c-2.31-.89-4.8-2-7.68-3.7,5.53,.04,8.06,.05,17.02-1.11,2.06,1.95,4.06,3.78,6.18,5.48-6.88,.6-11.48,.13-15.52-.67Zm12.02,2.66v.03c-.06,.02-.09,.03-.26,.01l-2-.22q-.49-.07-2.51-.97c-.08-.04-.08-.04-.08-.08q.05-.03,2.26,.12,.48,.03,2.51,1.05c.06,.03,.06,.04,.09,.06Zm-7.63-1.17q-.51-.12-2.54-.82s-.06-.02-.09-.04t2.26,.38q.47,.08,2.53,.9,.06,.03,.09,.05s-.05,.01-.26-.02l-1.99-.43Zm14.06,4.11c-.44-.13-.9-.26-1.37-.4,.92,.26,1.84,.53,2.78,.8-.47-.14-.95-.27-1.4-.4Zm-13.57-3.92c6.12,1.66,10.23,1.85,14.53,1.85,3.19,2.12,6.83,3.98,11.36,5.54h0c-9.16-2.62-16.98-4.84-25.89-7.39Zm93.24,2.86c.1-.26,.04-.06-.01,.1-.06,.41-.32,2.11-.69,3.37-.33,1.2-.71,2.48-.71,2.48-.01,0-.03,0-.05,0,.16,.09,.31,.16,.46,.22,.21,.06,.41,.1,.6,.13,.09,0,.17,0,.25,0-1.49,2.06-4.32,2.92-6.92,2.86-3.53-.08-6.88-1.43-10.25-2.48-9.84-3.08-20.63-3.67-30.42-.46-3.42,1.12-6.76,2.7-10.35,2.89-1.86,.1-3.95-.32-4.99-1.86-.28-.41-.31-.93-.25-1.47l.26,.08c.12,.04,.23,.07,.35,.1,.77,.22,1.53,.44,2.27,.66v-.04h.02q.08,.03,.11,.02c-.05-.02-.11-.04-.16-.06-.06-.19-.11-.38-.17-.58,.06,.04,.14,.08,.26,.1,.23,.04,.61,0,1.17-.33-.12-.42-.4-1.36-.64-2.25-.69-1.82-1.32-5.28-1.32-5.28,.21,.69,.43,1.32,.62,1.81-1.22-5.46-1.32-13.57-1.32-13.57l1.5,3.11c.78,4.3,2.14,8.44,3.03,10.91l1.3,3.01c.43-.35,.79-.7,1.12-1.13-.17-.29-.32-.62-.46-.98v-.04c-.06-.17-.68-2.38-.59-5.12,.29,.58,.66,1.15,1.07,1.72,.12,1.69,.44,2.93,.49,3.1,.4,1.04,.95,1.69,1.52,2.1-.2-.65-.49-1.75-.57-2.72,0,0,.12,.32,.24,.6-.07-.31-.17-.75-.25-1.3,1.03,1.19,2.06,2.25,2.66,3,.16,.21,.35,.41,.56,.58l-.4,.27c.39,.22,.83,.2,1.27,.08,0,0,0,0,.01,0,.18-.01,.35-.08,.51-.17,.11-.04,.22-.09,.33-.13,1.07-.46,2.14-.93,3.28-1.16,1.6-.32,3.3-.18,4.8-.84,.6-.26,1.15-.65,1.78-.85,.13-.04,.35-.07,.59-.11,2.92,.36,5.88,1.13,8.81,1.07,2.57-.05,5.13-.74,7.67-.41,2.49,.32,4.76,1.58,7.19,2.24,2.61,.71,5.42,.69,8.02-.05,.31-.09,.62-.19,.91-.32,.27,.29,.54,.55,.87,.81l1.41-3.25c.89-2.47,2.25-6.61,3.03-10.91l1.5-3.11s-.1,8.11-1.32,13.57Zm61.06,36.21q1.21,2.73,.81,2.74c-.72-.02-1.69,.08-2.39-.06-.23-.05-.44-.25-.57-.54l-.92-2.28h0c-.12-.31-.05-.5,.17-.5,.69,.03,1.63-.03,2.31,.12,.17,.04,.42,.2,.58,.52Zm-2.93-5.75q1.39,2.57,1.02,2.56-2.24-.16-2.29-.18s-.32-.08-.54-.52l-1.07-2.15c-.14-.29-.09-.46,.11-.45,.65,.07,1.54,.06,2.18,.23,.17,.04,.41,.2,.59,.51Zm-3.33-5.36q1.58,2.38,1.23,2.35-2.41-.33-2.71-.8l-1.22-2.01c-.19-.32-.1-.42,.05-.41q2.32,.41,2.65,.86Zm-3.74-4.92q1.75,2.15,1.47,2.13s-.02,0-.03,0q-2.26-.48-2.59-.92l-1.37-1.85c-.22-.3-.13-.36-.04-.35,0,0,.02,0,.03,0q2.16,.57,2.52,.99Zm-6.6-5.5s.04-.01,.1,0q2.03,.78,2.42,1.15l.78,.76q.96,.97,.92,1.05s-.04,.01-.1,0q-2.11-.67-2.47-1.07l-.74-.82-.76-.81c-.19-.2-.17-.24-.16-.27Zm-4.26-3.91s.05,.02,.08,.03q1.91,.98,2.33,1.3,1.84,1.47,1.84,1.53s-.05,0-.09-.02q-2-.88-2.37-1.22l-1.61-1.41h0c-.14-.12-.16-.15-.19-.18v-.02Zm-1.28-1.25l-.93-.58c-.35-.21-.38-.23-1.7-1.1,.86,.55,1.74,1.11,2.63,1.67Zm-2.19-1.08c1.96,1.5,4.03,3.28,6.33,5.72-5.3-1.6-7.71-2.33-16.64-3.74-1.43-2.45-2.83-4.77-4.38-7,6.76,1.37,11.05,3.12,14.7,5.03Zm-15.86-7.53s-.03-.03-.04-.05c-.02-.04-.07-.16,.26-.07l1.92,.59q.47,.16,2.08,1.77s.03,.03,.04,.05q.1,.16-2.2-.45-.47-.12-2.06-1.83Zm5.07,1.58l.02-.02s.08,0,.24,.06l1.86,.78q.45,.2,2.14,1.64c.06,.06,.06,.06,.06,.1q-.06,.01-2.14-.76-.45-.17-2.11-1.71s-.05-.05-.06-.09Zm6.99,3.28q.45,.26,2.2,1.51s.05,.04,.07,.07t-2.06-1q-.43-.21-2.17-1.58-.05-.04-.07-.07s.05,0,.24,.1l1.79,.98Zm-12.56-8.01c3.99,2.53,7.93,5.02,12.15,7.7-5.4-3.32-9.28-4.67-13.41-5.88,.39-.64,.82-1.25,1.26-1.82Zm-5.63-2.01q1.73,1.88,1.5,1.86s-.04-.01-.06-.02l-.4-.13c-.93-.95-1.76-1.77-2.54-2.51,1.13,.44,1.21,.5,1.5,.8Zm-4.12-3.82q1.72,1.48,1.72,1.55-.05,0-.13-.03c-.49-.21-.85-.37-1.16-.5-.89-.78-1.79-1.52-2.79-2.32,1.94,.96,1.98,.98,2.36,1.29Zm-8.62,9.33c.18-.63,.33-1.26,.48-1.89,.22,.32,.51,.77,.94,1.44,.15,.28,.17,.32-1.41,.45Zm6.8-.26c-.72,.1-1.43,.01-2.15,.01q-.49,0-1.94-2.17c-.11-.18,0-.3,.27-.31l2.04,.05q.49,.03,1.95,2.11c.15,.24-.12,.29-.17,.3Zm-5.91-3.7c.66-3.74,.81-7.27,.78-10.16,.02,.02,.05,.04,.07,.06,0,.24,0,.48,0,.73,4.53,3.79,6.39,5.73,10.28,10.01,.09,.15,.19,.3,.28,.45-4.11-.75-7.89-1.06-11.41-1.09Zm11.39,3.99c-.71,.03-1.42-.11-2.12-.16q-.48-.04-1.96-2.06c-.09-.13-.07-.27,.25-.25l2.01,.22q.48,.07,1.99,2c.16,.23-.13,.24-.16,.24Zm2.79,.18s-.05-.04-.08-.07c-.02-.02-.04-.05-.05-.08l-1.18-1.76s.04,0,.07,0h0l.99,.19,.98,.21h.02c-.29,.49-.54,.99-.74,1.51Zm.97,.3c.16-.43,.35-.86,.57-1.28,.2,.21,.49,.53,.89,.99,.17,.23,.28,.4,.36,.52-.03,.03-.08,.04-.14,.04q-.06,0-1.12-.19l-.56-.09Zm2.04,4.93l-1.12-2.05c-.14-.27-.09-.43,.12-.4q2.63,.5,2.94,.97,1.46,2.44,1.06,2.4-2.73-.42-3.01-.91Zm2.75,5.81l-.48-1.11-.5-1.1c-.12-.29-.05-.47,.18-.46,.73,.09,1.73,.11,2.44,.31,.18,.05,.44,.22,.62,.54l.53,1.07q.55,1.15,.57,1.22c.02,.08,.05,.33-.23,.32-.76-.07-1.78-.05-2.52-.24-.25-.06-.47-.27-.61-.56Zm2.37,6.18l-.84-2.34c-.1-.31-.01-.51,.24-.51,.77,.06,1.82,.01,2.58,.19,.19,.04,.45,.21,.6,.56q1.1,2.8,.66,2.8c-.79-.04-1.87,.04-2.65-.13-.26-.05-.48-.27-.59-.57Zm1.99,6.49l-.7-2.45c-.08-.33,.03-.55,.29-.56,.81,.02,1.91-.08,2.71,.08,.2,.04,.46,.21,.59,.57q.93,2.93,.46,2.95c-.83,0-1.96,.12-2.78-.03-.27-.05-.48-.26-.58-.57Zm1.61,6.74l-.56-2.54c-.06-.34,.07-.57,.35-.59,.85,0,1.99-.15,2.83-.01,.2,.03,.46,.2,.57,.57q.76,3.06,.27,3.09c-.87,.02-2.04,.19-2.9,.06-.27-.04-.49-.26-.57-.58Zm1.25,6.94l-.42-2.6c-.04-.35,.11-.59,.4-.61,.89-.03,2.07-.21,2.95-.09,.27,.04,.48,.25,.56,.57q.59,3.14,.08,3.19c-.91,.04-2.12,.24-3.02,.12-.28-.04-.49-.26-.55-.59Zm4.56,7.49c-.94,.05-2.19,.28-3.13,.17-.28-.03-.49-.26-.54-.59l-.29-2.64c-.03-.36,.15-.61,.45-.64,.92-.04,2.15-.26,3.07-.15,.22,.03,.47,.19,.55,.59q.42,3.2-.1,3.26Zm2.92,3.07c-1.28-10.27-3.17-22.36-9.54-35.9,7.61,.98,10.34,1.37,17.22,3.11,5.07,6.64,10.84,15.11,15.18,31.64-7.18,.3-10.15,.42-22.86,1.15Zm26.66-4.22c-.76,.01-1.78,.16-2.52,.03-.24-.04-.45-.25-.55-.55l-.77-2.38c-.1-.33-.01-.54,.22-.55,.73,0,1.73-.12,2.45,.01,.18,.03,.42,.19,.57,.54q1.02,2.86,.6,2.9Z"/></g><g id="d"><path class="h" d="M149.55,227.06s8.58-6.72,14.61-6.53l-5.48,11.31s-8.74,.3-9.12-4.78Z"/><path class="i" d="M108.8,227.43s14.86,.2,16.37,1.51c0,0-8.35,4.08-9.47,5.46,0,0-4.93-2.83-6.9-6.97Z"/><path class="g" d="M100.33,218.91c-.14-.95-.28-1.91-.13-2.85s.62-1.89,1.45-2.36c.15-.09,.33-.16,.49-.1,.15,.05,.25,.19,.33,.32,2.08,3.15,3.57,6.68,4.37,10.37-.6-1.19-1.27-2.35-2-3.47-.55-.83-1.22-1.7-2.19-1.92-1.45,1.54-.13,4-.84,5.69-1.39-1.11-1.24-4.07-1.47-5.67Z"/><path class="g" d="M166.33,214.38c.26-.48,.54-.96,.99-1.26s1.11-.35,1.5,.03c.35,.35,.35,.91,.31,1.41-.17,2.26-.55,4.5-1.14,6.69-.4-.28-.48-.82-.64-1.28s-.58-.94-1.05-.8c-.94,.3-2.51,3.5-2.29,.64,.14-1.83,1.46-3.85,2.32-5.43Z"/></g><g id="e"><path class="g" d="M129.94,230.27c.49-.42,.71-1.23,1.35-1.34,1.1-.18,1.32,1.87,2.43,2.05,1.31,.21,1.65-2.29,2.97-2.3,1.37,0,1.54,2.6,2.91,2.57,1.01-.02,1.4-1.5,2.38-1.73,1.36-.31,1.98,1.89,3.32,2.25,.79,.21,1.61-.3,2.08-.97,.75-1.08,.74-2.68-.16-3.64s-2.62-1.05-3.5-.06c-.17,.19-.32,.42-.56,.49-.48,.15-.86-.37-1.18-.76-.98-1.18-2.87-1.47-4.16-.63-.48,.31-.97,.78-1.52,.63-.23-.06-.42-.23-.61-.37-1.33-.96-3.41-.62-4.37,.7,.05-.07-3.51-3.24-4.32-.24-.38,1.4,1.13,4.88,2.95,3.33Z"/></g></svg>