<?xml version="1.0" encoding="UTF-8"?><svg id="Lag_2" xmlns="http://www.w3.org/2000/svg" viewBox="0 0 50.83 57.69"><defs><style>.cls-1{fill:#fff;}</style></defs><g id="_ÎÓÈ_1"><path class="cls-1" d="M22.3,30.38c0-.31-.12-.59-.33-.79-.2-.2-.48-.33-.79-.33s-.59,.12-.79,.33c-.2,.2-.33,.48-.33,.79s.13,.59,.33,.79c.2,.2,.48,.33,.79,.33h1.11v-1.11h0Zm20.94,4.17l4.68,2.7-.99,1.73-4.68-2.7,.99-1.73h0Zm2.18-10.14h5.41v2h-5.41v-2h0Zm-3.18-9.87l4.68-2.7,.99,1.73-4.68,2.7-.99-1.73h0Zm-7.69-6.96l2.7-4.68,1.73,.99-2.7,4.68-1.73-.99h0ZM8.58,36.28l-4.68,2.7-.99-1.73,4.68-2.7,.99,1.73h0Zm-3.18-9.87H0v-2H5.41v2h0Zm2.18-10.14l-4.68-2.7,.99-1.73,4.68,2.7-.99,1.73h0Zm6.96-7.69l-2.7-4.68,1.73-.99,2.7,4.68-1.73,.99h0Zm9.87-3.18V0h2V5.41h-2Zm2.11,24.98c0-.86,.35-1.64,.91-2.2,.02-.02,.04-.04,.07-.06,.56-.53,1.31-.85,2.14-.85s1.64,.35,2.2,.91c.56,.56,.91,1.34,.91,2.2s-.35,1.64-.91,2.2c-.56,.56-1.34,.91-2.2,.91h-1.11v8.03h2.52c1.39-3.83,3.2-6.17,4.83-8.28,2.06-2.67,3.81-4.94,3.81-9.67,0-3.94-1.6-7.51-4.18-10.09-2.58-2.58-6.15-4.18-10.09-4.18s-7.51,1.6-10.09,4.18c-2.58,2.58-4.18,6.15-4.18,10.09,0,4.73,1.75,7,3.81,9.67,1.63,2.11,3.43,4.45,4.83,8.28h2.52v-8.03h-1.11c-.86,0-1.64-.35-2.2-.91-.56-.56-.91-1.34-.91-2.2s.35-1.64,.91-2.2c.56-.56,1.34-.91,2.2-.91s1.64,.35,2.2,.91c.56,.56,.91,1.34,.91,2.2v1.11h2.22v-1.11h0Zm2.33-.79c-.2,.2-.33,.48-.33,.79v1.11h1.11c.31,0,.59-.12,.79-.33,.2-.2,.33-.48,.33-.79s-.12-.59-.33-.79c-.2-.2-.48-.33-.79-.33s-.56,.11-.75,.29l-.04,.04h0Zm-2.32,3.9h-2.23v8.03h2.23v-8.03h0Zm4.23,17.45h-10.69v1.57h10.69v-1.57h0Zm-10.69-2h10.69v-1.57h-10.69v1.57h0Zm0-3.57h10.69v-1.85h-10.69v1.85h0Zm12.69,8.15h0v.07h0v.03h0v.08h-.01v.05h-.01v.02h0v.02h0v.05h-.02v.02h0l-.02,.05h0l-.02,.04h0c-.03,.06-.06,.11-.1,.16h0s-.05,.07-.08,.09h0v.02h-.02v.02h0l-3.15,3.15c-.2,.2-.45,.29-.71,.29h-6.34c-.28,0-.54-.12-.72-.31l-3.14-3.14-.03-.03h0v-.02h-.02l-.02-.02h-.01v-.02h-.02v-.02h-.01v-.02h-.01v-.02h-.01v-.02h-.01v-.02h-.01v-.02h-.01v-.02h-.01v-.02l-.02-.02h0v-.02l-.03-.04h0v-.02c-.04-.09-.06-.18-.07-.28v-.02h0v-10.89c-1.31-3.82-3.1-6.14-4.7-8.22-2.29-2.97-4.23-5.49-4.23-10.89,0-4.49,1.82-8.56,4.77-11.51,2.94-2.95,7.01-4.77,11.51-4.77s8.56,1.82,11.51,4.77c2.94,2.95,4.77,7.01,4.77,11.51,0,5.4-1.95,7.92-4.23,10.89-1.6,2.08-3.39,4.39-4.7,8.22v10.84h0Zm-11.27,1l1.17,1.17h5.52l1.17-1.17h-7.86Z"/></g></svg>