<svg viewBox="0 0 50.83 57.69" xmlns="http://www.w3.org/2000/svg"><path d="m22.3 30.38c0-.31-.12-.59-.33-.79-.2-.2-.48-.33-.79-.33s-.59.12-.79.33c-.2.2-.33.48-.33.79s.13.59.33.79.48.33.79.33h1.11v-1.11zm20.94 4.17 4.68 2.7-.99 1.73-4.68-2.7zm2.18-10.14h5.41v2h-5.41zm-3.18-9.87 4.68-2.7.99 1.73-4.68 2.7zm-7.69-6.96 2.7-4.68 1.73.99-2.7 4.68zm-25.97 28.7-4.68 2.7-.99-1.73 4.68-2.7zm-3.18-9.87h-5.4v-2h5.41v2zm2.18-10.14-4.68-2.7.99-1.73 4.68 2.7zm6.96-7.69-2.7-4.68 1.73-.99 2.7 4.68zm9.87-3.18v-5.4h2v5.41h-2zm2.11 24.98c0-.86.35-1.64.91-2.2.02-.02.04-.04.07-.06.56-.53 1.31-.85 2.14-.85s1.64.35 2.2.91.91 1.34.91 2.2-.35 1.64-.91 2.2-1.34.91-2.2.91h-1.11v8.03h2.52c1.39-3.83 3.2-6.17 4.83-8.28 2.06-2.67 3.81-4.94 3.81-9.67 0-3.94-1.6-7.51-4.18-10.09s-6.15-4.18-10.09-4.18-7.51 1.6-10.09 4.18-4.18 6.15-4.18 10.09c0 4.73 1.75 7 3.81 9.67 1.63 2.11 3.43 4.45 4.83 8.28h2.52v-8.03h-1.11c-.86 0-1.64-.35-2.2-.91s-.91-1.34-.91-2.2.35-1.64.91-2.2 1.34-.91 2.2-.91 1.64.35 2.2.91.91 1.34.91 2.2v1.11h2.22v-1.11zm2.33-.79c-.2.2-.33.48-.33.79v1.11h1.11c.31 0 .59-.12.79-.33.2-.2.33-.48.33-.79s-.12-.59-.33-.79c-.2-.2-.48-.33-.79-.33s-.56.11-.75.29l-.04.04zm-2.32 3.9h-2.23v8.03h2.23zm4.23 17.45h-10.69v1.57h10.69zm-10.69-2h10.69v-1.57h-10.69zm0-3.57h10.69v-1.85h-10.69zm12.69 8.15v.07.03.08h-.01v.05h-.01v.02.02.05h-.02v.02l-.02.05-.02.04c-.03.06-.06.11-.1.16s-.05.07-.08.09v.02h-.02v.02l-3.15 3.15c-.2.2-.45.29-.71.29h-6.34c-.28 0-.54-.12-.72-.31l-3.14-3.14-.03-.03v-.02h-.02l-.02-.02h-.01v-.02h-.02v-.02h-.01v-.02h-.01v-.02h-.01v-.02h-.01v-.02h-.01v-.02h-.01v-.02h-.01v-.02l-.02-.02v-.02l-.03-.04v-.02c-.04-.09-.06-.18-.07-.28v-.02-10.89c-1.31-3.82-3.1-6.14-4.7-8.22-2.29-2.97-4.23-5.49-4.23-10.89 0-4.49 1.82-8.56 4.77-11.51 2.94-2.95 7.01-4.77 11.51-4.77s8.56 1.82 11.51 4.77c2.94 2.95 4.77 7.01 4.77 11.51 0 5.4-1.95 7.92-4.23 10.89-1.6 2.08-3.39 4.39-4.7 8.22v10.84zm-11.27 1 1.17 1.17h5.52l1.17-1.17z" fill="#fff"/></svg>